<?xml version="1.0" encoding="UTF-8" standalone="no"?><!DOCTYPE svg PUBLIC "-//W3C//DTD SVG 1.1//EN" "http://www.w3.org/Graphics/SVG/1.1/DTD/svg11.dtd"><svg width="100%" height="100%" viewBox="0 0 595 614" version="1.1" xmlns="http://www.w3.org/2000/svg" xmlns:xlink="http://www.w3.org/1999/xlink" xml:space="preserve" xmlns:serif="http://www.serif.com/" style="fill-rule:evenodd;clip-rule:evenodd;stroke-linejoin:round;stroke-miterlimit:2;"><g><path d="M110.005,98.355c-0.624,1.249 -1.561,2.185 -2.809,2.809c0,-1.873 0.936,-2.809 2.809,-2.809Z" style="fill:#a0d5df;"/><rect x="0" y="-1" width="596" height="618" style="fill:#ebebeb;"/></g><g><path d="M285.127,22.5l23.412,0c11.309,1.031 22.547,2.592 33.713,4.682c-16.523,-0.652 -33.224,-1.276 -50.102,-1.873c-8.585,0.156 -17.169,0.312 -25.753,0.468c0.312,0.312 0.625,0.624 0.936,0.936c-5.334,0.159 -10.64,0.628 -15.92,1.405c-2.617,0.411 -4.802,1.347 -6.555,2.809c-5.659,-0.456 -11.278,0.48 -16.857,2.809c-1.716,0.521 -2.964,1.458 -3.746,2.809l-7.492,0c0.385,2.6 -0.395,3.224 -2.341,1.873c-5.119,1.278 -10.269,2.683 -15.452,4.214c-0.775,0.857 -1.712,1.481 -2.809,1.873c0.312,0.312 0.625,0.624 0.936,0.936c-2.594,1.044 -4.935,2.449 -7.024,4.214c-1.312,-1.585 -3.029,-2.209 -5.151,-1.873l0,3.746c-2.25,0.049 -4.435,-0.264 -6.555,-0.936c33.572,-16.806 69.158,-26.171 106.759,-28.094Z" style="fill:#59a1ac;"/></g><g><path d="M342.252,27.182c-0.159,1.238 0.153,2.331 0.936,3.278c1.873,0.312 3.746,0.624 5.619,0.936c0.803,0.645 1.426,1.426 1.873,2.341c-2.742,0.922 -5.551,1.234 -8.428,0.936l0,3.746c2.476,0.318 4.661,-0.306 6.555,-1.873c0.648,0.492 1.116,1.116 1.405,1.873c3.244,-1.109 6.053,-2.982 8.428,-5.619c8.797,1.581 17.382,4.078 25.753,7.492c0.995,-0.866 0.995,-1.802 0,-2.809c1.671,0.368 3.231,0.992 4.682,1.873l0,2.809c5.141,2.443 10.447,4.628 15.92,6.555c0.757,2.271 1.693,4.456 2.809,6.555c0.775,-0.857 1.712,-1.481 2.809,-1.873c1.73,0.947 3.446,1.883 5.151,2.809c1.399,-1.168 2.804,-1.168 4.214,0c0.794,1.787 1.107,3.66 0.936,5.619c1.521,0.131 2.613,-0.493 3.278,-1.873c1.191,4.158 3.845,6.967 7.96,8.428c3.99,-2.788 7.58,-2.476 10.77,0.936c2.174,-0.807 3.266,0.13 3.278,2.809l2.809,0l0,3.746l-2.809,0c-0.245,1.384 0.066,2.633 0.936,3.746c1.143,-1.134 2.235,-1.134 3.278,0c2.057,-3.242 4.398,-3.242 7.024,0c0.64,-0.34 1.264,-0.652 1.873,-0.936c2.451,1.204 4.636,2.765 6.555,4.682c1.209,0.911 1.209,1.847 0,2.809c3.249,1.246 5.433,3.431 6.555,6.555l3.746,0c1.015,2.432 2.264,4.773 3.746,7.024c-0.312,0.312 -0.625,0.624 -0.936,0.936c1.961,1.266 4.146,1.734 6.555,1.405l0,5.619c1.986,0.164 3.859,-0.149 5.619,-0.936c1.561,0.936 2.809,2.185 3.746,3.746l0,4.682c2.058,0.482 3.931,1.418 5.619,2.809c0.594,1.936 1.53,3.652 2.809,5.151c-0.312,0.312 -0.625,0.625 -0.936,0.936c1.347,0.205 2.595,0.673 3.746,1.405c4.053,5.153 7.955,10.46 11.706,15.92c0.721,-1.028 1.501,-1.028 2.341,0c2.524,7.232 6.27,13.787 11.238,19.666c-0.82,0.703 -1.757,1.172 -2.809,1.405c1.884,2.768 4.382,4.485 7.492,5.151c0.332,1.911 0.332,3.628 0,5.151c0.888,0.452 1.824,0.608 2.809,0.468c1.105,5.321 3.29,10.16 6.555,14.515c-0.136,0.723 -0.448,1.348 -0.936,1.873c1.211,0.459 2.46,0.615 3.746,0.468c-0.911,2.62 -0.911,4.961 0,7.024c0.888,0.452 1.824,0.608 2.809,0.468l0,5.619l2.809,0c0.167,3.164 0.167,6.129 0,8.897c2.013,1.911 2.95,4.253 2.809,7.024l0,2.809c-2.002,-0.19 -3.563,-1.127 -4.682,-2.809c-1.018,2.717 -0.238,4.902 2.341,6.555c0.947,-0.784 2.04,-1.096 3.278,-0.936c0.054,2.963 0.678,5.772 1.873,8.428l2.809,0l0,3.746l-2.809,0l0,-2.809l-2.809,0c0.268,1.664 0.892,3.225 1.873,4.682c-0.593,3.064 -0.436,6.185 0.468,9.365c0.452,-0.888 0.608,-1.824 0.468,-2.809c1.65,-0.134 3.211,0.179 4.682,0.936c0.312,-0.936 0.625,-1.873 0.936,-2.809c-1.473,-3.931 -2.098,-7.989 -1.873,-12.174c1.474,3.191 2.411,6.624 2.809,10.301c-0.155,4.693 0.001,9.375 0.468,14.047c1.614,8.765 3.331,17.506 5.151,26.221c0.495,10.411 -0.128,20.869 -1.873,31.372c0.562,3.655 0.562,7.246 0,10.77c0.435,2.668 1.059,5.166 1.873,7.492c-2.385,17.436 -4.57,34.918 -6.555,52.443c0.222,1.209 -0.09,2.145 -0.936,2.809c-1.1,-0.205 -2.037,0.107 -2.809,0.936c-0.555,1.762 -1.18,3.479 -1.873,5.151c0.312,0.312 0.625,0.625 0.936,0.936c-0.89,3.392 -2.138,6.67 -3.746,9.833c0.964,2.157 0.964,4.342 0,6.555c-1.514,1.02 -2.294,2.581 -2.341,4.682c-0.312,-0.625 -0.625,-1.248 -0.936,-1.873c-0.465,2.478 -0.622,4.976 -0.468,7.492c-0.368,1.671 -0.992,3.231 -1.873,4.682c-1.186,0.553 -2.434,1.021 -3.746,1.405c0.312,0.312 0.625,0.625 0.936,0.936c-1.791,3.03 -2.727,6.308 -2.809,9.833l-2.809,0c-1.008,3.029 -1.632,6.151 -1.873,9.365c-2.572,0.401 -4.133,1.961 -4.682,4.682c-1.056,0.714 -2.149,1.338 -3.278,1.873c-1.123,3.021 -1.591,6.142 -1.405,9.365c-0.609,-0.285 -1.233,-0.597 -1.873,-0.936c-2.666,3.767 -4.539,7.825 -5.619,12.174c0.068,1.43 -0.556,2.366 -1.873,2.809c-1.286,-0.147 -2.535,0.009 -3.746,0.468c0.312,0.312 0.625,0.625 0.936,0.936c-1.701,2.17 -3.574,4.199 -5.619,6.087c-1.482,2.332 -2.419,4.829 -2.809,7.492c-1.238,0.159 -2.331,-0.153 -3.278,-0.936c-0.918,1.46 -1.698,3.021 -2.341,4.682c-1.563,-1.097 -2.968,-2.345 -4.214,-3.746c-1.907,0.425 -3.624,1.205 -5.151,2.341c7.908,1.38 8.532,4.814 1.873,10.301c0.704,0.628 1.017,1.408 0.936,2.341c-2.086,2.941 -4.584,5.437 -7.492,7.492c-3.296,1.407 -6.106,3.592 -8.428,6.555c-1.113,0.87 -2.362,1.182 -3.746,0.936l0,3.746c-2.897,0.683 -5.238,2.244 -7.024,4.682c-0.312,-0.312 -0.625,-0.625 -0.936,-0.936c-0.459,1.211 -0.615,2.46 -0.468,3.746c-1.016,1.954 -2.576,3.203 -4.682,3.746l-4.682,0c0.14,0.985 -0.016,1.922 -0.468,2.809c-0.947,-0.784 -2.04,-1.096 -3.278,-0.936l0,3.746c-2.844,1.264 -5.654,2.669 -8.428,4.214c0.312,0.312 0.625,0.625 0.936,0.936c-1.211,0.459 -2.46,0.615 -3.746,0.468l0,3.746c-2.794,2.337 -5.917,4.21 -9.365,5.619c-10.139,1.006 -18.256,5.375 -24.349,13.111c-5.625,0.767 -11.243,1.703 -16.857,2.809c-1.409,1.257 -2.034,2.817 -1.873,4.682c-3.599,-0.68 -6.096,0.569 -7.492,3.746c-7.291,0.663 -14.471,1.911 -21.539,3.746c-1.65,-0.134 -3.211,0.179 -4.682,0.936c-0.87,-1.113 -1.182,-2.362 -0.936,-3.746c-2.516,-0.154 -5.014,0.003 -7.492,0.468c1.53,0.463 3.091,0.618 4.682,0.468l0,3.746c-2.415,0.391 -4.445,-0.234 -6.087,-1.873c-0.297,1.687 -0.921,1.998 -1.873,0.936c-2.655,2.369 -5.309,2.213 -7.96,-0.468c-5.619,-0.625 -11.238,-0.625 -16.857,0c1.374,1.028 2.155,2.433 2.341,4.214c2.863,-0.891 5.828,-1.202 8.897,-0.936c1.02,1.514 2.581,2.294 4.682,2.341c-3.358,1.117 -6.792,2.21 -10.301,3.278c-1.873,-0.625 -3.746,-1.248 -5.619,-1.873c-17.714,0.06 -35.664,0.06 -53.848,0c-5.551,0.064 -10.858,-0.873 -15.92,-2.809c-1.709,0.415 -3.426,0.728 -5.151,0.936l-11.238,0c-0.104,-0.578 -0.416,-1.046 -0.936,-1.405c-6.835,-2.577 -13.703,-5.075 -20.603,-7.492c-3.106,-0.466 -6.228,-0.623 -9.365,-0.468c-3.027,-2.053 -6.149,-4.238 -9.365,-6.555c-0.869,-1.187 -1.025,-2.436 -0.468,-3.746c1.399,1.168 2.804,1.168 4.214,0c-3.264,-3.256 -7.01,-4.504 -11.238,-3.746c1.409,1.257 2.034,2.817 1.873,4.682l3.746,0l0,3.746l-2.809,0c-3.195,-0.508 -6.005,-1.756 -8.428,-3.746c0.391,-0.676 1.015,-1.144 1.873,-1.405c-4.129,-1.979 -8.187,-4.007 -12.174,-6.087c0.147,-1.286 -0.009,-2.535 -0.468,-3.746c-2.737,2.455 -5.079,1.986 -7.024,-1.405c-2.645,-0.214 -4.829,-1.306 -6.555,-3.278c0.196,-0.549 0.509,-1.017 0.936,-1.405c-2.095,-3.051 -4.436,-3.519 -7.024,-1.405c-1.69,-2.378 -4.032,-3.314 -7.024,-2.809l0,-2.809c-1.286,0.147 -2.535,-0.009 -3.746,-0.468c0.312,-0.312 0.625,-0.625 0.936,-0.936c-3.244,-1.694 -6.21,-3.723 -8.897,-6.087c-0.281,1.467 0.187,2.715 1.405,3.746c-2.106,-0.543 -3.666,-1.791 -4.682,-3.746l0,-3.746c-1.1,0.205 -2.037,-0.107 -2.809,-0.936c0.936,-1.248 1.873,-2.498 2.809,-3.746c-1.802,-1.413 -2.895,-3.286 -3.278,-5.619c-0.486,0.951 -1.267,1.575 -2.341,1.873c-1.503,-0.871 -2.908,-0.871 -4.214,0c-2.934,-2.505 -5.587,-5.315 -7.96,-8.428c-1.276,1.291 -2.213,1.136 -2.809,-0.468c1.537,-1.541 1.224,-2.478 -0.936,-2.809c1.249,-0.625 1.249,-1.248 0,-1.873c1.553,-0.679 2.021,-1.772 1.405,-3.278c-1.261,2.574 -2.509,2.887 -3.746,0.936c-0.312,0.312 -0.624,0.625 -0.936,0.936c-0.665,-1.379 -1.757,-2.004 -3.278,-1.873l0,-2.809l-3.746,0c1.208,-2.941 0.428,-5.437 -2.341,-7.492c-0.312,0.625 -0.624,1.248 -0.936,1.873c-1.628,-1.67 -3.345,-3.231 -5.151,-4.682c-1.113,-0.87 -2.362,-1.182 -3.746,-0.936c-0.608,-1.812 -0.92,-3.685 -0.936,-5.619c-2.153,-0.597 -4.182,-1.534 -6.087,-2.809c-2.501,-4.206 -5.154,-8.264 -7.96,-12.174c-0.87,-1.113 -1.182,-2.362 -0.936,-3.746l-2.809,0c-0.159,-1.238 0.153,-2.331 0.936,-3.278c-1.347,-0.205 -2.595,-0.673 -3.746,-1.405c-2.492,-4.815 -4.677,-9.341 -6.555,-13.579c-0.888,-0.452 -1.824,-0.608 -2.809,-0.468c0.147,-1.286 -0.009,-2.535 -0.468,-3.746c-2.832,-4.769 -5.173,-9.764 -7.024,-14.984c2.79,0.243 4.507,-1.006 5.151,-3.746c0.468,-4.672 0.624,-9.355 0.468,-14.047l-3.746,0c0.251,3.883 -0.841,7.317 -3.278,10.301c-0.261,-0.858 -0.729,-1.482 -1.405,-1.873c-1.672,-1.53 -3.544,-2.779 -5.619,-3.746c0.139,-2.91 -0.329,-5.719 -1.405,-8.428c-0.358,0.521 -0.827,0.833 -1.405,0.936c-0.371,-5.108 -1.308,-10.103 -2.809,-14.984c0.178,-2.489 0.802,-4.83 1.873,-7.024c-0.156,-0.468 -0.312,-0.936 -0.468,-1.405c-1.249,1.248 -2.497,1.248 -3.746,0c-0.269,-2.239 -0.737,-4.424 -1.405,-6.555c0.827,-0.981 1.451,-2.074 1.873,-3.278c-1.419,-0.399 -2.355,-1.804 -2.809,-4.214c-0.975,2.333 -1.755,2.333 -2.341,0c-0.945,-5.736 -2.038,-11.355 -3.278,-16.857c1.757,-3.978 2.381,-8.036 1.873,-12.174c-0.82,-2.129 -2.38,-3.065 -4.682,-2.809c-0.271,-3.377 0.041,-6.655 0.936,-9.833c-1.385,-4.696 -2.01,-9.534 -1.873,-14.515c0.452,-9.054 0.92,-18.106 1.405,-27.158c0.81,-1.615 1.434,-3.177 1.873,-4.682c0.643,1.937 0.487,3.81 -0.468,5.619c1.503,1.993 2.439,1.993 2.809,0c-0.425,-2.549 -1.049,-5.047 -1.873,-7.492c-0.915,0.447 -1.696,1.07 -2.341,1.873c-0.756,-1.947 -0.6,-3.82 0.468,-5.619c1.063,-0.565 1.999,-0.877 2.809,-0.936c-1.249,-0.625 -2.497,-1.248 -3.746,-1.873c0.144,-3.888 0.144,-7.946 0,-12.174c0.772,-3.057 1.084,-6.179 0.936,-9.365c0.669,-5.854 1.918,-11.473 3.746,-16.857c0.719,0.715 1.187,1.651 1.405,2.809c0.436,-1.34 1.216,-2.432 2.341,-3.278c-0.757,-0.288 -1.381,-0.757 -1.873,-1.405c3.396,-7.798 5.737,-15.915 7.024,-24.349c0.624,-0.625 1.249,-1.248 1.873,-1.873c0.092,-2.83 0.873,-5.328 2.341,-7.492l3.746,0c-0.131,-1.521 0.493,-2.613 1.873,-3.278c-0.762,-3.205 0.174,-6.014 2.809,-8.428c-3.227,-3.494 -3.071,-6.46 0.468,-8.897c2.489,4.946 2.958,10.096 1.405,15.452c0.779,0.644 1.403,0.488 1.873,-0.468c1.391,-3.376 2.639,-6.81 3.746,-10.301c-1.842,-1.653 -3.09,-3.681 -3.746,-6.087c1.249,-1.507 2.653,-2.912 4.214,-4.214c-2.172,-6.332 -0.455,-11.638 5.151,-15.92c1.113,-0.87 2.362,-1.182 3.746,-0.936c-0.14,-0.985 0.016,-1.922 0.468,-2.809c0.836,1.134 1.616,1.134 2.341,0c-3.793,-4.375 -3.169,-7.185 1.873,-8.428c0.241,-3.214 0.865,-6.336 1.873,-9.365c0.874,-2.688 2.435,-4.873 4.682,-6.555c1.131,-0.687 2.38,-0.999 3.746,-0.936l0,-3.746l3.746,0l0,-5.619c1.17,0.072 1.951,0.697 2.341,1.873c0.312,-1.561 0.624,-3.121 0.936,-4.682c1.709,-0.565 3.426,-1.189 5.151,-1.873c1.097,-4.062 3.438,-7.183 7.024,-9.365c0.388,0.428 0.856,0.74 1.405,0.936c0.904,-1.776 1.216,-3.649 0.936,-5.619c2.796,0.801 5.606,1.269 8.428,1.405c-0.241,-2.374 -0.865,-4.559 -1.873,-6.555c5.514,-0.055 8.323,-2.708 8.428,-7.96c3.667,-2.706 7.413,-5.515 11.238,-8.428c2.042,-1.649 3.602,-3.678 4.682,-6.087c1.211,-0.459 2.46,-0.615 3.746,-0.468c-0.063,-1.366 0.249,-2.615 0.936,-3.746c2.207,0.153 4.392,-0.003 6.555,-0.468c-1.938,-0.304 -2.249,-1.084 -0.936,-2.341c3.151,-2.015 6.585,-2.952 10.301,-2.809l0,-3.746c2.719,-0.735 5.216,-1.984 7.492,-3.746c0.87,1.113 1.182,2.362 0.936,3.746c2.27,0.288 4.455,-0.024 6.555,-0.936c2.682,-3.496 4.867,-7.242 6.555,-11.238c1.232,-0.064 2.482,-0.064 3.746,0c-1.224,-1.278 -1.224,-2.527 0,-3.746c2.12,0.673 4.305,0.985 6.555,0.936l0,-3.746c2.122,-0.336 3.839,0.288 5.151,1.873c2.088,-1.766 4.43,-3.17 7.024,-4.214c-0.312,-0.312 -0.625,-0.624 -0.936,-0.936c1.098,-0.392 2.034,-1.016 2.809,-1.873c5.182,-1.532 10.333,-2.936 15.452,-4.214c1.946,1.351 2.726,0.727 2.341,-1.873l7.492,0c4.325,0.542 8.227,-0.394 11.706,-2.809c0.452,0.888 0.608,1.824 0.468,2.809c4.617,1.025 9.299,1.649 14.047,1.873l0,-3.746c-3.173,0.497 -5.046,-0.752 -5.619,-3.746c1.753,-1.462 3.938,-2.399 6.555,-2.809c5.28,-0.777 10.586,-1.245 15.92,-1.405c-0.312,-0.312 -0.625,-0.624 -0.936,-0.936c8.585,-0.156 17.169,-0.312 25.753,-0.468c16.878,0.597 33.579,1.221 50.102,1.873Z" style="fill:#3da1ba;"/></g><g><path d="M244.858,30.928c0.573,2.994 2.446,4.243 5.619,3.746l0,3.746c-4.748,-0.224 -9.43,-0.848 -14.047,-1.873c0.14,-0.985 -0.016,-1.922 -0.468,-2.809c-3.479,2.415 -7.381,3.352 -11.706,2.809c0.782,-1.352 2.03,-2.288 3.746,-2.809c5.579,-2.329 11.198,-3.265 16.857,-2.809Z" style="fill:#33a0b1;"/></g><g><path d="M342.252,27.182c14.456,1.819 28.503,5.253 42.142,10.301c0.995,1.007 0.995,1.944 0,2.809c-8.371,-3.414 -16.956,-5.911 -25.753,-7.492c-2.375,2.637 -5.184,4.51 -8.428,5.619c-0.288,-0.757 -0.757,-1.381 -1.405,-1.873c-1.895,1.567 -4.079,2.191 -6.555,1.873l0,-3.746c2.877,0.297 5.686,-0.015 8.428,-0.936c-0.447,-0.916 -1.07,-1.696 -1.873,-2.341c-1.873,-0.312 -3.746,-0.624 -5.619,-0.936c-0.784,-0.947 -1.096,-2.04 -0.936,-3.278Z" style="fill:#4da1af;"/></g><g><path d="M406.87,46.849c3.419,1.085 6.541,2.646 9.365,4.682c-3.99,0.044 -7.112,-1.516 -9.365,-4.682Z" style="fill:#79b1ba;"/></g><g><path d="M178.368,50.594c-1.224,1.219 -1.224,2.468 0,3.746c-1.264,-0.064 -2.514,-0.064 -3.746,0c-1.688,3.996 -3.873,7.742 -6.555,11.238c-2.101,0.912 -4.285,1.225 -6.555,0.936c0.245,-1.384 -0.066,-2.633 -0.936,-3.746c-2.276,1.762 -4.773,3.011 -7.492,3.746l0,3.746c-3.716,-0.143 -7.15,0.794 -10.301,2.809c-1.313,1.257 -1.001,2.038 0.936,2.341c-2.163,0.465 -4.348,0.621 -6.555,0.468c12.433,-10.288 26.168,-18.716 41.205,-25.285Z" style="fill:#48a2b0;"/></g><g><path d="M389.077,39.357c6.308,1.785 12.239,4.282 17.793,7.492c2.253,3.166 5.374,4.727 9.365,4.682c15.638,7.185 29.997,16.238 43.078,27.158c-0.609,0.285 -1.233,0.597 -1.873,0.936c-2.626,-3.242 -4.967,-3.242 -7.024,0c-1.042,-1.134 -2.135,-1.134 -3.278,0c-0.87,-1.113 -1.182,-2.362 -0.936,-3.746l2.809,0l0,-3.746l-2.809,0c-0.012,-2.68 -1.104,-3.616 -3.278,-2.809c-3.19,-3.412 -6.779,-3.724 -10.77,-0.936c-4.115,-1.461 -6.769,-4.27 -7.96,-8.428c-0.665,1.38 -1.757,2.004 -3.278,1.873c0.17,-1.959 -0.142,-3.832 -0.936,-5.619c-1.41,-1.168 -2.815,-1.168 -4.214,0c-1.704,-0.926 -3.421,-1.863 -5.151,-2.809c-1.098,0.392 -2.034,1.016 -2.809,1.873c-1.116,-2.099 -2.053,-4.284 -2.809,-6.555c-5.473,-1.928 -10.779,-4.113 -15.92,-6.555l0,-2.809Z" style="fill:#46a1b0;"/></g><g><path d="M465.868,83.371c4.018,2.456 7.452,5.578 10.301,9.365l-3.746,0c-1.122,-3.124 -3.307,-5.309 -6.555,-6.555c1.209,-0.962 1.209,-1.898 0,-2.809Z" style="fill:#63a9ae;"/></g><g><path d="M137.163,75.879c-0.687,1.131 -0.999,2.38 -0.936,3.746c-1.286,-0.147 -2.535,0.009 -3.746,0.468c-1.081,2.409 -2.641,4.438 -4.682,6.087c-3.825,2.913 -7.571,5.722 -11.238,8.428c-0.105,5.252 -2.914,7.906 -8.428,7.96c1.008,1.996 1.632,4.181 1.873,6.555c-2.823,-0.136 -5.632,-0.604 -8.428,-1.405c0.28,1.97 -0.032,3.843 -0.936,5.619c-0.549,-0.196 -1.017,-0.508 -1.405,-0.936c-3.586,2.182 -5.927,5.303 -7.024,9.365c-1.724,0.684 -3.441,1.308 -5.151,1.873c-0.312,1.561 -0.624,3.121 -0.936,4.682c-0.39,-1.176 -1.171,-1.801 -2.341,-1.873c6.797,-9.297 14.601,-17.726 23.412,-25.285c1.249,-0.624 2.185,-1.561 2.809,-2.809c5.723,-5.562 11.654,-11.025 17.793,-16.388c3.015,-2.282 6.137,-4.311 9.365,-6.087Z" style="fill:#4fa0ac;"/></g><g><path d="M476.169,92.736c5.609,4.048 10.603,8.731 14.984,14.047c-1.76,0.788 -3.633,1.1 -5.619,0.936l0,-5.619c-2.41,0.329 -4.594,-0.139 -6.555,-1.405c0.312,-0.312 0.625,-0.624 0.936,-0.936c-1.482,-2.25 -2.731,-4.591 -3.746,-7.024Z" style="fill:#52a4b2;"/></g><g><path d="M494.899,110.529c9.457,9.457 17.885,19.758 25.285,30.904c-0.84,-1.028 -1.62,-1.028 -2.341,0c-3.751,-5.461 -7.653,-10.768 -11.706,-15.92c-1.151,-0.731 -2.399,-1.2 -3.746,-1.405c0.312,-0.312 0.625,-0.625 0.936,-0.936c-1.279,-1.498 -2.216,-3.215 -2.809,-5.151c-1.688,-1.392 -3.561,-2.328 -5.619,-2.809l0,-4.682Z" style="fill:#61a5b0;"/></g><g><path d="M83.783,126.45l0,5.619l-3.746,0l0,3.746c-1.366,-0.063 -2.615,0.249 -3.746,0.936c2,-3.806 4.498,-7.239 7.492,-10.301Z" style="fill:#67a7b1;"/></g><g><path d="M212.081,223.844c-1.497,0.251 -2.746,-0.062 -3.746,-0.936c21.095,-10.08 42.01,-20.382 62.744,-30.904c6.734,-2.9 13.29,-6.022 19.666,-9.365c13.008,-6.037 25.806,-12.28 38.396,-18.73c1.548,-0.15 2.796,-0.774 3.746,-1.873c10.375,-4.482 20.365,-9.476 29.967,-14.984c13.59,-5.787 25.296,-3.29 35.118,7.492c3.845,7.378 7.435,14.869 10.77,22.476c-65.608,15.74 -131.162,31.349 -196.661,46.824Z" style="fill:#f9f9f9;"/></g><g><path d="M362.855,147.052c-9.603,5.507 -19.592,10.502 -29.967,14.984c2.675,-3.147 6.109,-5.176 10.301,-6.087c-0.312,-0.312 -0.625,-0.625 -0.936,-0.936c5.132,-1.606 9.814,-3.791 14.047,-6.555c0.213,-1.063 0.524,-2.156 0.936,-3.278c1.572,1.502 3.445,2.127 5.619,1.873Z" style="fill:#4f9aa8;"/></g><g><path d="M329.142,163.909c-12.59,6.45 -25.388,12.693 -38.396,18.73c0.886,-2.634 2.759,-3.883 5.619,-3.746l0,-3.746c0.985,0.14 1.922,-0.016 2.809,-0.468c-1.248,-0.625 -1.248,-1.248 0,-1.873c4.183,-2.092 8.554,-3.653 13.111,-4.682c0.89,-2.725 2.763,-3.818 5.619,-3.278c-0.14,0.985 0.016,1.922 0.468,2.809c2.716,-3.386 6.306,-4.635 10.77,-3.746Z" style="fill:#439bad;"/></g><g><path d="M520.184,141.433c11.267,15.031 20.632,31.264 28.094,48.697c-1.286,0.147 -2.535,-0.009 -3.746,-0.468c0.489,-0.525 0.801,-1.15 0.936,-1.873c-3.266,-4.356 -5.45,-9.194 -6.555,-14.515c-0.985,0.14 -1.922,-0.016 -2.809,-0.468c0.332,-1.523 0.332,-3.239 0,-5.151c-3.11,-0.666 -5.608,-2.382 -7.492,-5.151c1.053,-0.233 1.989,-0.701 2.809,-1.405c-4.968,-5.879 -8.714,-12.435 -11.238,-19.666Z" style="fill:#60a6b1;"/></g><g><path d="M461.186,229.463c-4.828,0.571 -9.198,-0.521 -13.111,-3.278c-35.585,-0.468 -71.172,-0.625 -106.759,-0.468l-72.109,0c-9.005,0.495 -17.902,-0.128 -26.69,-1.873c-2.816,1.385 -5.782,2.01 -8.897,1.873c-1.898,0.152 -3.771,-0.005 -5.619,-0.468c0.312,-0.312 0.625,-0.625 0.936,-0.936c-5.61,-0.467 -11.229,-0.624 -16.857,-0.468c65.499,-15.475 131.053,-31.084 196.661,-46.824c-3.335,-7.606 -6.924,-15.098 -10.77,-22.476c-9.822,-10.782 -21.528,-13.278 -35.118,-7.492c0.037,-1.014 0.349,-1.951 0.936,-2.809c1.786,-0.815 3.502,-1.751 5.151,-2.809c5.803,-0.309 11.579,0.315 17.325,1.873c-0.129,-3.455 1.431,-5.172 4.682,-5.151c-0.824,1.27 -1.137,2.675 -0.936,4.214c2.915,0.677 5.412,2.082 7.492,4.214c-1.364,0.396 -1.832,1.176 -1.405,2.341c1.297,0.984 2.234,2.233 2.809,3.746c0.312,-0.625 0.625,-1.248 0.936,-1.873c-0.249,3.185 1.156,4.745 4.214,4.682c-0.205,1.1 0.107,2.037 0.936,2.809c0.839,-0.942 1.463,-0.942 1.873,0c-1.361,2.008 -1.049,3.724 0.936,5.151c-0.489,0.525 -0.801,1.15 -0.936,1.873c1.938,4.969 2.874,10.12 2.809,15.452c4.796,1.151 9.322,0.527 13.579,-1.873c2.924,2.322 5.733,2.322 8.428,0c2.365,4.243 5.955,7.053 10.77,8.428c1.667,4.833 4.788,7.331 9.365,7.492c-1.05,5.257 -1.206,10.564 -0.468,15.92c1.113,-0.995 1.581,-2.245 1.405,-3.746c3.18,0.125 3.492,1.061 0.936,2.809c0.447,0.916 1.07,1.696 1.873,2.341c-0.895,3.178 -1.207,6.456 -0.936,9.833l3.746,0c-0.214,-1.737 0.411,-2.517 1.873,-2.341c0.824,1.27 1.137,2.675 0.936,4.214c-3.559,0.299 -3.714,1.235 -0.468,2.809c0.452,0.888 0.608,1.824 0.468,2.809Z" style="fill:#4b9faf;"/></g><g><path d="M392.822,183.575c4.823,-1.078 9.818,-1.233 14.984,-0.468c-2.074,0.363 -3.323,1.3 -3.746,2.809c-6.983,1.398 -14.007,2.491 -21.071,3.278c-3.873,-1.311 -4.03,-2.716 -0.468,-4.214c4.768,-0.069 8.201,-0.538 10.301,-1.405Z" style="fill:#3799b2;"/></g><g><path d="M263.588,224.78c-4.994,-0.625 -9.989,-1.248 -14.984,-1.873c9.526,-1.601 18.891,-3.786 28.094,-6.555c8.409,-1.054 16.525,-2.927 24.349,-5.619c38.755,-8.593 77.463,-17.49 116.124,-26.69c14.337,-2.899 24.482,2.251 30.436,15.452c2.019,8.066 3.736,16.181 5.151,24.349c-63.095,-0.305 -126.152,0.007 -189.169,0.936Z" style="fill:#f9f9f9;"/></g><g><path d="M71.609,143.306c-1.008,3.029 -1.632,6.151 -1.873,9.365c-5.042,1.244 -5.666,4.053 -1.873,8.428c-0.725,1.134 -1.505,1.134 -2.341,0c-0.452,0.888 -0.608,1.824 -0.468,2.809c-1.384,-0.245 -2.633,0.066 -3.746,0.936c-5.606,4.283 -7.322,9.589 -5.151,15.92c-1.561,1.303 -2.966,2.707 -4.214,4.214c0.656,2.406 1.904,4.434 3.746,6.087c-1.106,3.491 -2.355,6.925 -3.746,10.301c-0.47,0.956 -1.094,1.113 -1.873,0.468c1.553,-5.356 1.085,-10.506 -1.405,-15.452c-3.539,2.437 -3.695,5.403 -0.468,8.897c-2.635,2.414 -3.572,5.224 -2.809,8.428c-1.38,0.665 -2.004,1.757 -1.873,3.278l-3.746,0c1.427,-2.936 2.051,-6.057 1.873,-9.365c6.227,-16.513 14.187,-32.12 23.88,-46.824c1.902,-2.674 3.931,-5.171 6.087,-7.492Z" style="fill:#47a1b0;"/></g><g><path d="M548.279,190.13c2.402,4.068 4.275,8.438 5.619,13.111l-2.809,0l0,-5.619c-0.985,0.14 -1.922,-0.016 -2.809,-0.468c-0.911,-2.062 -0.911,-4.403 0,-7.024Z" style="fill:#6aabb2;"/></g><g><path d="M271.08,192.003c-20.735,10.522 -41.649,20.824 -62.744,30.904c-0.808,0.902 -1.433,0.902 -1.873,0c0.758,-1.471 1.07,-3.032 0.936,-4.682c2.024,-0.305 3.74,-1.242 5.151,-2.809c0.312,0.312 0.625,0.625 0.936,0.936c-0.155,-4.214 1.873,-6.244 6.087,-6.087c0.734,-2.808 2.295,-3.588 4.682,-2.341c-2.113,0.862 -3.049,2.424 -2.809,4.682c2.665,0.44 4.85,-0.34 6.555,-2.341c-0.787,-1.56 -0.318,-1.717 1.405,-0.468c2.278,-1.991 4.932,-3.239 7.96,-3.746c1.069,-0.866 1.069,-1.647 0,-2.341c1.053,-0.233 1.989,-0.701 2.809,-1.405c2.906,-0.241 5.715,-0.709 8.428,-1.405c6.171,-6.042 13.663,-9.007 22.476,-8.897Z" style="fill:#449dab;"/></g><g><path d="M301.047,210.733c-7.823,2.691 -15.94,4.564 -24.349,5.619c3.035,-1.837 6.157,-3.71 9.365,-5.619c1.248,0.625 2.498,1.248 3.746,1.873c3.503,-1.715 7.249,-2.338 11.238,-1.873Z" style="fill:#4b99a4;"/></g><g><path d="M553.897,203.241c4.032,8.977 7.155,18.342 9.365,28.094c-1.108,-0.94 -2.356,-1.721 -3.746,-2.341c0.428,-0.388 0.741,-0.856 0.936,-1.405c-0.641,-3.172 -1.89,-5.981 -3.746,-8.428c0.14,-2.771 -0.796,-5.112 -2.809,-7.024c0.167,-2.767 0.167,-5.732 0,-8.897Z" style="fill:#5ea5af;"/></g><g><path d="M248.604,222.907c4.994,0.625 9.989,1.248 14.984,1.873c-5.344,0.308 -10.65,-0.005 -15.92,-0.936c0.116,-0.568 0.428,-0.88 0.936,-0.936Z" style="fill:#86c6d4;"/></g><g><path d="M41.642,197.622c0.178,3.308 -0.446,6.429 -1.873,9.365c-1.469,2.164 -2.249,4.662 -2.341,7.492c-0.624,0.625 -1.249,1.248 -1.873,1.873c-1.286,8.434 -3.628,16.55 -7.024,24.349c0.492,0.648 1.116,1.116 1.873,1.405c-1.125,0.846 -1.906,1.938 -2.341,3.278c-0.217,-1.158 -0.686,-2.095 -1.405,-2.809c2.96,-15.748 7.955,-30.732 14.984,-44.951Z" style="fill:#5fa3ae;"/></g><g><path d="M253.287,231.336l204.153,0c3.89,-0.384 6.388,-0.072 7.492,0.936c-101.765,-0.156 -203.529,0 -305.293,0.468c-3.699,0.729 -7.133,2.133 -10.301,4.214l-2.809,0c0.072,-1.171 0.697,-1.951 1.873,-2.341c-0.312,-0.312 -0.625,-0.625 -0.936,-0.936c2.946,-0.103 3.883,-1.351 2.809,-3.746c3.924,-0.354 7.514,-1.447 10.77,-3.278c0.452,0.888 0.608,1.824 0.468,2.809c30.527,0.671 61.119,1.295 91.775,1.873Z" style="fill:#4397a4;"/></g><g><path d="M269.207,225.717c0.104,0.578 0.416,1.046 0.936,1.405c8.779,0.347 17.519,1.128 26.221,2.341c10.224,-0.546 20.369,-0.546 30.436,0c0.468,-0.468 0.936,-0.936 1.405,-1.405c4.782,0.107 9.152,-0.674 13.111,-2.341c35.587,-0.156 71.174,0 106.759,0.468c3.913,2.757 8.283,3.849 13.111,3.278c-1.248,0.625 -2.498,1.248 -3.746,1.873l-204.153,0c-5.648,-2.709 -12.203,-4.582 -19.666,-5.619c3.115,0.137 6.081,-0.488 8.897,-1.873c8.788,1.745 17.685,2.368 26.69,1.873Z" style="fill:#399bb4;"/></g><g><path d="M269.207,225.717l72.109,0c-3.959,1.667 -8.329,2.448 -13.111,2.341c-0.468,0.468 -0.936,0.936 -1.405,1.405c-10.066,-0.546 -20.212,-0.546 -30.436,0c-8.703,-1.214 -17.443,-1.994 -26.221,-2.341c-0.521,-0.359 -0.833,-0.827 -0.936,-1.405Z" style="fill:#379eb0;"/></g><g><path d="M464.932,232.272c4.213,0.991 8.272,2.552 12.174,4.682c4.315,4.166 7.28,9.161 8.897,14.984c0.468,59.934 0.625,119.869 0.468,179.805c-3.461,7.832 -9.08,13.451 -16.857,16.857c-102.674,0.931 -205.375,1.243 -308.103,0.936c-5.689,-0.661 -10.683,-2.846 -14.984,-6.555c-3.582,-4.357 -5.923,-9.352 -7.024,-14.984c-0.625,-58.687 -0.625,-117.372 0,-176.059c1.681,-6.177 4.959,-11.171 9.833,-14.984c3.168,-2.081 6.602,-3.486 10.301,-4.214c101.764,-0.468 203.528,-0.625 305.293,-0.468Z" style="fill:#f9f9f9;"/></g><g><path d="M143.718,238.827c-0.957,3.808 -2.83,6.929 -5.619,9.365l0,-3.746l-3.746,0c0.313,2.801 -0.624,4.986 -2.809,6.555l-0.936,0c-4.953,0.76 -9.635,2.322 -14.047,4.682c0.207,-1.157 0.832,-2.093 1.873,-2.809c2.814,-1.908 5.624,-3.781 8.428,-5.619c-0.196,-0.549 -0.509,-1.017 -0.936,-1.405c1.873,-0.312 3.746,-0.625 5.619,-0.936c0.578,-3.231 2.138,-5.885 4.682,-7.96c1.168,1.41 1.168,2.815 0,4.214c3.226,3.31 4.944,2.529 5.151,-2.341c0.915,-1.193 1.696,-1.193 2.341,0Z" style="fill:#3aa0b0;"/></g><g><path d="M556.707,219.161c1.856,2.447 3.105,5.256 3.746,8.428c-0.196,0.549 -0.509,1.017 -0.936,1.405c1.39,0.62 2.638,1.401 3.746,2.341c-0.225,4.185 0.4,8.243 1.873,12.174c-0.312,0.936 -0.625,1.873 -0.936,2.809c-1.471,-0.758 -3.032,-1.07 -4.682,-0.936c0.14,0.985 -0.016,1.922 -0.468,2.809c-0.905,-3.179 -1.061,-6.301 -0.468,-9.365c-0.98,-1.457 -1.605,-3.018 -1.873,-4.682l2.809,0l0,2.809l2.809,0l0,-3.746l-2.809,0c-1.195,-2.656 -1.819,-5.465 -1.873,-8.428c-1.238,-0.159 -2.331,0.153 -3.278,0.936c-2.579,-1.654 -3.359,-3.839 -2.341,-6.555c1.119,1.683 2.68,2.619 4.682,2.809l0,-2.809Z" style="fill:#38a0b1;"/></g><g><path d="M130.607,251.002c0.311,39.803 -0.001,79.448 -0.936,118.933c-1.537,-4.271 -2.785,-8.641 -3.746,-13.111c-2.851,-12.653 -5.973,-25.139 -9.365,-37.459c-2.968,-14.685 -6.09,-29.357 -9.365,-44.015c0.772,-5.754 2.645,-11.06 5.619,-15.92c1.561,-0.936 2.809,-2.185 3.746,-3.746c4.412,-2.361 9.094,-3.922 14.047,-4.682Z" style="fill:#f8f9f9;"/></g><g><path d="M566.072,241.637c3.877,14.316 6.374,28.988 7.492,44.015c-0.625,-1.248 -1.248,-2.498 -1.873,-3.746c-1.82,-8.716 -3.536,-17.456 -5.151,-26.221c-0.467,-4.672 -0.624,-9.355 -0.468,-14.047Z" style="fill:#61a4af;"/></g><g><path d="M138.099,244.446l0,37.459c-0.925,4.814 -1.237,9.809 -0.936,14.984l-4.682,0c-0.019,-11.299 0.45,-22.536 1.405,-33.713c-0.312,0.312 -0.625,0.625 -0.936,0.936c-0.165,-3.922 -0.633,-7.668 -1.405,-11.238l0,-1.873c2.186,-1.57 3.122,-3.754 2.809,-6.555l3.746,0Z" style="fill:#3b9bb3;"/></g><g><path d="M22.912,259.43c0.148,3.186 -0.165,6.308 -0.936,9.365l-0.936,0c0.046,-3.351 0.67,-6.472 1.873,-9.365Z" style="fill:#86c0c6;"/></g><g><path d="M99.704,278.16c8.618,38.72 17.359,77.427 26.221,116.124l-1.873,0c-1.423,-2.382 -2.671,-4.88 -3.746,-7.492c-7.537,-15.074 -15.029,-30.057 -22.476,-44.951c-4.517,-10.283 -9.511,-20.271 -14.984,-29.967c-2.757,-9.315 -1.508,-18.055 3.746,-26.221c3.688,-3.688 8.059,-6.185 13.111,-7.492Z" style="fill:#f8f9f9;"/></g><g><path d="M477.106,236.954c1.924,-0.126 3.485,0.498 4.682,1.873c2.296,4.229 4.325,8.6 6.087,13.111c0.468,59.622 0.625,119.244 0.468,178.868c-0.32,0.785 -0.944,1.098 -1.873,0.936c0.156,-59.936 0,-119.871 -0.468,-179.805c-1.616,-5.823 -4.581,-10.817 -8.897,-14.984Z" style="fill:#599da3;"/></g><g><path d="M21.039,268.795l0.936,0c0.144,4.228 0.144,8.286 0,12.174c1.249,0.625 2.497,1.248 3.746,1.873c-0.81,0.06 -1.747,0.372 -2.809,0.936c-1.069,1.799 -1.225,3.672 -0.468,5.619c0.645,-0.803 1.426,-1.426 2.341,-1.873c0.824,2.445 1.448,4.943 1.873,7.492c-0.37,1.993 -1.307,1.993 -2.809,0c0.955,-1.809 1.111,-3.682 0.468,-5.619c-0.439,1.506 -1.063,3.067 -1.873,4.682c-0.485,9.052 -0.953,18.104 -1.405,27.158c-0.137,4.981 0.488,9.82 1.873,14.515c-0.895,3.178 -1.207,6.456 -0.936,9.833c2.302,-0.256 3.863,0.681 4.682,2.809c0.508,4.138 -0.116,8.196 -1.873,12.174c-0.489,-1.61 -1.425,-2.858 -2.809,-3.746c-1.159,-3.857 -1.94,-7.916 -2.341,-12.174c-0.808,-11.07 -1.588,-21.995 -2.341,-32.777l0,-6.555c0.68,-12.1 1.928,-24.275 3.746,-36.523Z" style="fill:#51a3b2;"/></g><g><path d="M130.607,251.002l0.936,0l0,1.873c0.156,40.894 0,81.788 -0.468,122.679c-1.235,-1.639 -1.703,-3.512 -1.405,-5.619c0.936,-39.485 1.247,-79.13 0.936,-118.933Z" style="fill:#76abb1;"/></g><g><path d="M86.593,285.651c-5.254,8.166 -6.503,16.906 -3.746,26.221c-0.985,0.14 -1.922,-0.016 -2.809,-0.468c0.312,-0.312 0.624,-0.625 0.936,-0.936c-1.165,-1.751 -1.789,-3.78 -1.873,-6.087c1.362,-5.503 1.987,-11.122 1.873,-16.857c1.873,-0.625 3.746,-1.248 5.619,-1.873Z" style="fill:#4e9ca8;"/></g><g><path d="M571.691,281.906c0.625,1.248 1.248,2.498 1.873,3.746c-0.222,1.209 0.09,2.145 0.936,2.809l0,45.888c-0.625,0 -0.936,0.312 -0.936,0.936c-0.758,-1.678 -1.226,-3.551 -1.405,-5.619c-0.435,0.556 -0.591,1.181 -0.468,1.873c-0.814,-2.326 -1.438,-4.824 -1.873,-7.492c0.562,-3.524 0.562,-7.114 0,-10.77c1.745,-10.504 2.368,-20.961 1.873,-31.372Z" style="fill:#4da3ae;"/></g><g><path d="M131.544,252.875c0.772,3.57 1.24,7.316 1.405,11.238c0.312,-0.312 0.625,-0.625 0.936,-0.936c-0.955,11.177 -1.423,22.415 -1.405,33.713l4.682,0c-0.301,-5.175 0.011,-10.17 0.936,-14.984l0,74.919l-3.746,0c-0.2,1.54 0.112,2.944 0.936,4.214c-1.894,1.06 -2.205,2.621 -0.936,4.682c-1.753,6.587 -1.753,13.299 0,20.134c-1.632,2.879 -3.349,5.688 -5.151,8.428c-0.179,2.068 -0.647,3.941 -1.405,5.619c-0.441,-1.947 -1.065,-3.82 -1.873,-5.619c-8.863,-38.696 -17.603,-77.404 -26.221,-116.124c1.727,-0.659 2.195,-1.908 1.405,-3.746c-2.4,2.31 -3.336,1.686 -2.809,-1.873c0.52,1.962 0.989,2.118 1.405,0.468c-0.38,-0.885 -1.004,-1.51 -1.873,-1.873c1.997,-0.86 2.621,-2.108 1.873,-3.746c2.907,-2.97 4.78,-6.559 5.619,-10.77c0.959,1.267 2.207,1.892 3.746,1.873c-0.205,-1.1 0.107,-2.037 0.936,-2.809c0.385,0.714 0.541,1.65 0.468,2.809c0.628,0.704 1.408,1.017 2.341,0.936c-2.974,4.86 -4.847,10.166 -5.619,15.92c3.275,14.658 6.397,29.33 9.365,44.015c2.585,12.385 4.77,24.872 6.555,37.459l2.809,0c0.961,4.47 2.209,8.839 3.746,13.111c-0.299,2.107 0.17,3.98 1.405,5.619c0.468,-40.891 0.625,-81.785 0.468,-122.679Z" style="fill:#3e9bae;"/></g><g><path d="M481.788,238.827c4.895,0.497 6.768,2.994 5.619,7.492c1.227,2.534 2.163,5.187 2.809,7.96c-0.623,58.934 -1.247,117.776 -1.873,176.527c0.156,-59.624 0,-119.246 -0.468,-178.868c-1.762,-4.511 -3.791,-8.882 -6.087,-13.111Z" style="fill:#3c9cae;"/></g><g><path d="M116.56,319.365c3.392,12.32 6.514,24.806 9.365,37.459l-2.809,0c-1.786,-12.587 -3.971,-25.074 -6.555,-37.459Z" style="fill:#5397a3;"/></g><g><path d="M573.564,335.285c-1.01,16.684 -3.82,32.916 -8.428,48.697c1.985,-17.525 4.17,-35.007 6.555,-52.443c-0.123,-0.692 0.034,-1.317 0.468,-1.873c0.179,2.068 0.647,3.941 1.405,5.619Z" style="fill:#5aa5b1;"/></g><g><path d="M97.831,341.84c7.447,14.894 14.939,29.878 22.476,44.951l-2.809,0c0.279,-3.841 -1.281,-6.337 -4.682,-7.492c-0.405,-2.497 -0.874,-4.993 -1.405,-7.492c-5.634,-8.012 -10.16,-16.284 -13.579,-24.817c0.332,-1.523 0.332,-3.239 0,-5.151Z" style="fill:#5199a8;"/></g><g><path d="M146.528,236.954l2.809,0c-4.874,3.812 -8.152,8.807 -9.833,14.984c-0.625,58.687 -0.625,117.372 0,176.059c1.1,5.632 3.442,10.627 7.024,14.984c-0.692,-0.123 -1.317,0.034 -1.873,0.468c1.12,0.612 1.12,1.081 0,1.405c-1.216,-0.553 -1.997,-1.489 -2.341,-2.809c-0.312,0.312 -0.625,0.625 -0.936,0.936c0.286,-1.82 0.286,-3.693 0,-5.619c-0.665,-1.379 -1.757,-2.004 -3.278,-1.873l0,-187.296c2.789,-2.436 4.662,-5.557 5.619,-9.365c1.197,-0.264 2.133,-0.889 2.809,-1.873Z" style="fill:#559ca7;"/></g><g><path d="M21.976,356.824c1.384,0.888 2.32,2.136 2.809,3.746c1.24,5.502 2.333,11.121 3.278,16.857c0.586,2.333 1.367,2.333 2.341,0c0.454,2.411 1.39,3.815 2.809,4.214c-0.422,1.203 -1.046,2.296 -1.873,3.278c0.668,2.131 1.136,4.316 1.405,6.555c1.249,1.248 2.497,1.248 3.746,0c0.156,0.468 0.312,0.936 0.468,1.405c-1.071,2.193 -1.695,4.534 -1.873,7.024c1.502,4.881 2.438,9.876 2.809,14.984c-7.941,-18.533 -13.248,-37.887 -15.92,-58.062Z" style="fill:#54a4af;"/></g><g><path d="M124.052,394.283l1.873,0c0.808,1.799 1.432,3.672 1.873,5.619c-0.29,1.159 -0.759,1.159 -1.405,0c-0.537,-2.005 -1.317,-3.878 -2.341,-5.619Z" style="fill:#9fe6ef;"/></g><g><path d="M564.199,386.792c-0.167,2.543 -0.635,5.041 -1.405,7.492c-1.9,5.469 -3.929,10.775 -6.087,15.92c0.964,-2.214 0.964,-4.399 0,-6.555c1.608,-3.163 2.856,-6.441 3.746,-9.833c-0.312,-0.312 -0.625,-0.625 -0.936,-0.936c0.693,-1.672 1.318,-3.388 1.873,-5.151c0.773,-0.83 1.709,-1.142 2.809,-0.936Z" style="fill:#63a9b2;"/></g><g><path d="M138.099,386.792l0,31.84c-0.676,0.391 -1.144,1.015 -1.405,1.873c-0.766,-2.441 -1.234,-4.939 -1.405,-7.492c1.023,-4.092 1.023,-8.151 0,-12.174c1.319,-3.636 1.631,-7.226 0.936,-10.77c0.101,-1.574 0.726,-2.667 1.873,-3.278Z" style="fill:#36a0ad;"/></g><g><path d="M556.707,410.204c-0.545,3.776 -1.794,7.21 -3.746,10.301c-0.154,-2.516 0.003,-5.014 0.468,-7.492c0.312,0.625 0.625,1.248 0.936,1.873c0.047,-2.101 0.827,-3.663 2.341,-4.682Z" style="fill:#73afb9;"/></g><g><path d="M40.705,422.378c-1.655,-2.146 -2.591,-4.643 -2.809,-7.492c0.578,-0.104 1.046,-0.416 1.405,-0.936c1.076,2.709 1.544,5.519 1.405,8.428Z" style="fill:#74afba;"/></g><g><path d="M49.134,435.489c-1.759,0.1 -2.071,-0.368 -0.936,-1.405c-1.885,-1.677 -1.885,-2.927 0,-3.746c-1.505,-0.982 -2.129,-2.387 -1.873,-4.214c0.676,0.391 1.144,1.015 1.405,1.873c2.436,-2.985 3.529,-6.419 3.278,-10.301l3.746,0c0.155,4.693 -0.001,9.375 -0.468,14.047c-0.643,2.74 -2.36,3.988 -5.151,3.746Z" style="fill:#34a1b2;"/></g><g><path d="M551.088,425.187c-1.652,4.235 -3.525,8.293 -5.619,12.174c0.082,-3.525 1.019,-6.803 2.809,-9.833c-0.312,-0.312 -0.625,-0.625 -0.936,-0.936c1.312,-0.384 2.56,-0.852 3.746,-1.405Z" style="fill:#7bb4bd;"/></g><g><path d="M40.705,422.378c2.074,0.966 3.947,2.216 5.619,3.746c-0.256,1.827 0.368,3.232 1.873,4.214c-1.885,0.819 -1.885,2.069 0,3.746c-1.135,1.037 -0.823,1.505 0.936,1.405c1.85,5.22 4.192,10.215 7.024,14.984c0.459,1.211 0.615,2.46 0.468,3.746c-6.276,-10.055 -11.583,-20.668 -15.92,-31.84Z" style="fill:#5fa3ad;"/></g><g><path d="M545.469,437.362c-1.1,3.449 -2.661,6.57 -4.682,9.365c0.241,-3.214 0.865,-6.336 1.873,-9.365l2.809,0Z" style="fill:#72b1b8;"/></g><g><path d="M469.614,448.599c0.161,0.929 -0.152,1.553 -0.936,1.873l-307.166,0l0,-0.936c102.727,0.306 205.429,-0.006 308.103,-0.936Z" style="fill:#7ea9ad;"/></g><g><path d="M243.922,450.472l224.756,0c-1.032,1.491 -0.407,2.271 1.873,2.341c-2.551,0.253 -5.049,0.721 -7.492,1.405c-28.075,-0.568 -56.169,-1.505 -84.283,-2.809c-7.519,0.314 -15.011,0.938 -22.476,1.873c-39.956,0 -79.913,-0.312 -119.87,-0.936c2.498,-0.625 4.994,-1.248 7.492,-1.873Z" style="fill:#389dad;"/></g><g><path d="M161.511,450.472l82.41,0c-2.498,0.625 -4.994,1.248 -7.492,1.873c-5.101,-0.042 -5.569,0.894 -1.405,2.809c0.945,1.428 1.413,2.989 1.405,4.682c-1.1,-0.205 -2.037,0.107 -2.809,0.936c1.879,1.641 4.063,2.577 6.555,2.809c1.503,-1.053 3.688,-1.676 6.555,-1.873c1.75,0.007 3.311,0.318 4.682,0.936c-2.404,0.207 -4.59,0.832 -6.555,1.873c-7.486,1.558 -14.978,3.119 -22.476,4.682c-0.037,-1.014 -0.349,-1.951 -0.936,-2.809c-4.956,-0.932 -9.95,-1.244 -14.984,-0.936c6.068,-2.145 12.312,-4.018 18.73,-5.619c8.629,-1.205 8.629,-1.83 0,-1.873c-22.477,0.156 -44.953,0 -67.427,-0.468c-0.858,-0.26 -1.482,-0.729 -1.873,-1.405c11.878,0.311 23.741,-0.001 35.586,-0.936c2.498,-0.625 4.994,-1.248 7.492,-1.873c-11.85,-0.78 -23.712,-1.248 -35.586,-1.405c-0.858,-0.26 -1.482,-0.729 -1.873,-1.405Z" style="fill:#409cad;"/></g><g><path d="M540.787,446.726c-2.899,5.494 -6.021,10.8 -9.365,15.92c-0.186,-3.222 0.282,-6.344 1.405,-9.365c1.128,-0.535 2.221,-1.159 3.278,-1.873c0.55,-2.721 2.111,-4.282 4.682,-4.682Z" style="fill:#5ea5b0;"/></g><g><path d="M155.893,456.091c0.391,0.676 1.015,1.144 1.873,1.405c22.474,0.468 44.949,0.625 67.427,0.468l0,1.873c-6.418,1.6 -12.661,3.473 -18.73,5.619l-0.936,0c-9.815,1.282 -19.492,3.311 -29.031,6.087c-13.306,1.773 -22.671,-3.378 -28.094,-15.452c2.296,-0.455 4.793,-0.455 7.492,0Z" style="fill:#f7f8f9;"/></g><g><path d="M225.192,457.964c8.629,0.043 8.629,0.668 0,1.873l0,-1.873Z" style="fill:#b4eff5;"/></g><g><path d="M56.625,454.218c0.985,-0.14 1.922,0.016 2.809,0.468c1.878,4.238 4.063,8.764 6.555,13.579c1.151,0.731 2.399,1.2 3.746,1.405c-0.783,0.947 -1.096,2.04 -0.936,3.278l2.809,0c-0.245,1.384 0.067,2.632 0.936,3.746c2.806,3.91 5.459,7.969 7.96,12.174c1.905,1.275 3.934,2.212 6.087,2.809c0.016,1.934 0.328,3.807 0.936,5.619c0.312,0.625 0.624,1.248 0.936,1.873c-2.107,-1.633 -4.137,-3.506 -6.087,-5.619c-9.753,-12.32 -18.337,-25.431 -25.753,-39.332Z" style="fill:#66a8b1;"/></g><g><path d="M244.858,464.52c0.625,0 0.936,0.312 0.936,0.936c-6.867,3.746 -13.735,7.492 -20.603,11.238c-10.894,4.512 -21.507,9.506 -31.84,14.984c-8.685,1.336 -16.49,-0.537 -23.412,-5.619c-1.765,-1.454 -2.702,-3.327 -2.809,-5.619c3.317,0.293 6.438,-0.02 9.365,-0.936c1.607,-0.121 3.168,-0.433 4.682,-0.936c13.352,-2.558 26.463,-5.681 39.332,-9.365l1.873,0c7.497,-1.563 14.989,-3.124 22.476,-4.682Z" style="fill:#f7f8f9;"/></g><g><path d="M251.414,462.647c-1.574,1.412 -3.447,2.349 -5.619,2.809c0,-0.625 -0.312,-0.936 -0.936,-0.936c1.966,-1.041 4.151,-1.666 6.555,-1.873Z" style="fill:#a1e8f0;"/></g><g><path d="M531.422,462.647c-2.035,4.076 -4.533,7.821 -7.492,11.238c1.08,-4.349 2.953,-8.407 5.619,-12.174c0.64,0.34 1.264,0.652 1.873,0.936Z" style="fill:#64a7af;"/></g><g><path d="M205.526,465.456l0.936,0c5.034,-0.307 10.028,0.005 14.984,0.936c0.587,0.859 0.9,1.795 0.936,2.809l-1.873,0c-2.432,-0.207 -2.432,-0.675 0,-1.405c-2.12,-0.221 -4.15,-0.689 -6.087,-1.405c-0.288,0.757 -0.757,1.381 -1.405,1.873c-2.33,0.492 -4.515,1.272 -6.555,2.341c-4.856,0.307 -9.383,0.775 -13.579,1.405c-0.702,-0.586 -1.483,-1.054 -2.341,-1.405c0.312,-0.312 0.625,-0.625 0.936,-0.936c5.11,-0.721 9.793,-2.126 14.047,-4.214Z" style="fill:#379bb5;"/></g><g><path d="M148.401,456.091c5.423,12.074 14.788,17.225 28.094,15.452c9.539,-2.776 19.216,-4.805 29.031,-6.087c-4.254,2.088 -8.937,3.493 -14.047,4.214c-0.312,0.312 -0.625,0.625 -0.936,0.936c0.858,0.35 1.639,0.818 2.341,1.405c4.196,-0.629 8.723,-1.098 13.579,-1.405c2.041,-1.069 4.225,-1.85 6.555,-2.341c0.648,-0.492 1.116,-1.116 1.405,-1.873c1.938,0.715 3.967,1.184 6.087,1.405c-2.432,0.73 -2.432,1.198 0,1.405c-12.869,3.684 -25.98,6.806 -39.332,9.365c-0.104,-0.578 -0.416,-1.046 -0.936,-1.405c1.098,-0.392 2.034,-1.016 2.809,-1.873c-8.122,-1.405 -16.238,-2.809 -24.349,-4.214c-2.233,2.297 -4.106,2.141 -5.619,-0.468c0.243,-1.181 0.867,-2.117 1.873,-2.809c-2.175,-1.802 -4.672,-3.05 -7.492,-3.746c0.428,-0.388 0.741,-0.856 0.936,-1.405c-1.806,-2.552 -2.275,-5.361 -1.405,-8.428c0.26,0.858 0.729,1.482 1.405,1.873Z" style="fill:#479dad;"/></g><g><path d="M225.192,476.694c1.34,0.886 2.588,1.978 3.746,3.278c-0.936,0.312 -1.873,0.625 -2.809,0.936c0.312,0.312 0.625,0.625 0.936,0.936c-2.743,0.728 -5.397,0.571 -7.96,-0.468c-0.452,0.888 -0.608,1.824 -0.468,2.809c-2.826,-0.155 -5.636,0.002 -8.428,0.468c-1.55,1.352 -2.175,3.07 -1.873,5.151c-5.035,0.357 -10.03,0.98 -14.984,1.873c10.333,-5.477 20.946,-10.472 31.84,-14.984Z" style="fill:#469caa;"/></g><g><path d="M176.495,479.503c-2.927,0.917 -6.048,1.23 -9.365,0.936c0.108,2.292 1.044,4.165 2.809,5.619c-5.109,0.853 -6.358,-0.707 -3.746,-4.682c-0.196,-0.549 -0.509,-1.017 -0.936,-1.405c3.733,-0.467 7.479,-0.624 11.238,-0.468Z" style="fill:#4fa3ad;"/></g><g><path d="M522.057,476.694c-3.293,5.338 -7.039,10.332 -11.238,14.984c0.391,-2.662 1.327,-5.16 2.809,-7.492c2.045,-1.888 3.918,-3.917 5.619,-6.087c-0.312,-0.312 -0.625,-0.625 -0.936,-0.936c1.211,-0.459 2.46,-0.615 3.746,-0.468Z" style="fill:#65a4b1;"/></g><g><path d="M510.819,491.678c-3.377,5.561 -7.435,10.555 -12.174,14.984c0.081,-0.933 -0.232,-1.713 -0.936,-2.341c6.659,-5.487 6.035,-8.921 -1.873,-10.301c1.526,-1.136 3.244,-1.916 5.151,-2.341c1.246,1.401 2.651,2.649 4.214,3.746c0.643,-1.661 1.423,-3.222 2.341,-4.682c0.947,0.784 2.04,1.096 3.278,0.936Z" style="fill:#57a4ae;"/></g><g><path d="M87.529,497.296c1.384,-0.245 2.633,0.066 3.746,0.936c1.805,1.452 3.522,3.013 5.151,4.682c0.312,-0.625 0.624,-1.248 0.936,-1.873c2.769,2.055 3.549,4.551 2.341,7.492l3.746,0l0,2.809c1.521,-0.131 2.613,0.494 3.278,1.873c0.312,-0.312 0.624,-0.625 0.936,-0.936c1.237,1.951 2.485,1.638 3.746,-0.936c0.616,1.506 0.148,2.599 -1.405,3.278c1.249,0.625 1.249,1.248 0,1.873c2.16,0.332 2.473,1.268 0.936,2.809c0.597,1.604 1.533,1.76 2.809,0.468c2.373,3.114 5.026,5.923 7.96,8.428c1.306,-0.871 2.711,-0.871 4.214,0c1.074,-0.298 1.855,-0.921 2.341,-1.873c0.383,2.333 1.476,4.206 3.278,5.619c-0.936,1.248 -1.873,2.498 -2.809,3.746c0.773,0.83 1.709,1.142 2.809,0.936l0,3.746c-5.269,-3.091 -9.951,-6.837 -14.047,-11.238c-1.007,-4.129 -3.504,-6.626 -7.492,-7.492c0.14,-0.985 -0.016,-1.922 -0.468,-2.809c-2.522,-1.152 -4.551,-2.868 -6.087,-5.151c0.312,-0.312 0.624,-0.625 0.936,-0.936c-2.218,-0.802 -4.403,-1.583 -6.555,-2.341c-3.984,-2.941 -7.106,-6.687 -9.365,-11.238c-0.312,-0.625 -0.624,-1.248 -0.936,-1.873Z" style="fill:#419fae;"/></g><g><path d="M97.831,510.407c2.152,0.759 4.337,1.54 6.555,2.341c-0.312,0.312 -0.624,0.625 -0.936,0.936c1.536,2.282 3.565,3.999 6.087,5.151c0.452,0.888 0.608,1.824 0.468,2.809c3.988,0.866 6.485,3.363 7.492,7.492c-7.147,-5.585 -13.703,-11.829 -19.666,-18.73Z" style="fill:#66a4b0;"/></g><g><path d="M491.153,514.153c-6.071,7.183 -12.939,13.425 -20.603,18.73c-0.147,-1.286 0.009,-2.535 0.468,-3.746c0.312,0.312 0.625,0.625 0.936,0.936c1.786,-2.439 4.127,-4 7.024,-4.682l0,-3.746c1.384,0.245 2.632,-0.066 3.746,-0.936c2.322,-2.963 5.132,-5.149 8.428,-6.555Z" style="fill:#6ea7b4;"/></g><g><path d="M465.868,536.629c-6.018,5.707 -12.573,10.701 -19.666,14.984l0,-3.746c1.286,0.147 2.535,-0.009 3.746,-0.468c-0.312,-0.312 -0.625,-0.625 -0.936,-0.936c2.775,-1.545 5.584,-2.95 8.428,-4.214l0,-3.746c1.238,-0.159 2.331,0.153 3.278,0.936c0.452,-0.888 0.608,-1.824 0.468,-2.809l4.682,0Z" style="fill:#62a5b2;"/></g><g><path d="M183.987,572.215c-17.253,-7.217 -33.173,-16.582 -47.761,-28.094c-1.217,-1.031 -1.686,-2.279 -1.405,-3.746c2.687,2.364 5.653,4.393 8.897,6.087c-0.312,0.312 -0.625,0.625 -0.936,0.936c1.211,0.459 2.46,0.615 3.746,0.468l0,2.809c2.992,-0.505 5.333,0.432 7.024,2.809c2.588,-2.115 4.929,-1.646 7.024,1.405c-0.428,0.388 -0.741,0.856 -0.936,1.405c1.726,1.971 3.911,3.064 6.555,3.278c1.945,3.391 4.286,3.859 7.024,1.405c0.459,1.211 0.615,2.46 0.468,3.746c3.988,2.08 8.045,4.108 12.174,6.087c-0.858,0.26 -1.482,0.729 -1.873,1.405Z" style="fill:#50a0ae;"/></g><g><path d="M436.837,557.231c-7.558,5.341 -15.675,9.711 -24.349,13.111c6.093,-7.735 14.209,-12.105 24.349,-13.111Z" style="fill:#57a1ae;"/></g><g><path d="M206.463,581.58c-5.037,-1.155 -9.72,-3.028 -14.047,-5.619l2.809,0l0,-3.746l-3.746,0c0.161,-1.865 -0.464,-3.426 -1.873,-4.682c4.228,-0.759 7.974,0.49 11.238,3.746c-1.41,1.168 -2.815,1.168 -4.214,0c-0.557,1.31 -0.401,2.558 0.468,3.746c3.216,2.318 6.338,4.503 9.365,6.555Z" style="fill:#48a1af;"/></g><g><path d="M412.489,570.342c-8.295,4.643 -17.036,8.389 -26.221,11.238c1.395,-3.177 3.893,-4.426 7.492,-3.746c-0.161,-1.865 0.464,-3.426 1.873,-4.682c5.613,-1.106 11.232,-2.042 16.857,-2.809Z" style="fill:#54a1ae;"/></g><g><path d="M206.463,581.58c3.137,-0.155 6.259,0.002 9.365,0.468c6.9,2.417 13.767,4.915 20.603,7.492c0.521,0.359 0.833,0.827 0.936,1.405c-10.703,-2.125 -21.004,-5.246 -30.904,-9.365Z" style="fill:#5ea1aa;"/></g><g><path d="M364.728,585.326c-0.684,1.447 -1.932,2.227 -3.746,2.341c0.521,0.359 0.833,0.827 0.936,1.405c-2.597,1.084 -5.406,1.708 -8.428,1.873c-0.391,-0.676 -1.015,-1.144 -1.873,-1.405c-5.61,-0.467 -11.229,-0.624 -16.857,-0.468c-3.069,-0.266 -6.034,0.046 -8.897,0.936c-0.186,-1.781 -0.967,-3.186 -2.341,-4.214c5.619,-0.625 11.238,-0.625 16.857,0c2.651,2.681 5.305,2.838 7.96,0.468c0.951,1.062 1.576,0.75 1.873,-0.936c1.643,1.639 3.672,2.263 6.087,1.873l0,-3.746c-1.591,0.15 -3.152,-0.006 -4.682,-0.468c2.478,-0.465 4.976,-0.622 7.492,-0.468c-0.245,1.384 0.066,2.632 0.936,3.746c1.471,-0.758 3.032,-1.07 4.682,-0.936Z" style="fill:#3ba1b1;"/></g><g><path d="M386.267,581.58c-7.733,3.408 -15.85,5.905 -24.349,7.492c-0.104,-0.578 -0.416,-1.046 -0.936,-1.405c1.814,-0.114 3.062,-0.894 3.746,-2.341c7.069,-1.835 14.248,-3.083 21.539,-3.746Z" style="fill:#62a3ae;"/></g><g><path d="M239.239,590.945l9.365,0c7.369,1.863 14.861,3.736 22.476,5.619c-10.915,-0.881 -21.529,-2.754 -31.84,-5.619Z" style="fill:#6ea7b2;"/></g><g><path d="M334.761,589.072c5.627,-0.155 11.246,0.001 16.857,0.468c0.858,0.26 1.482,0.729 1.873,1.405c-12.032,3.031 -24.206,5.216 -36.523,6.555l-41.205,0c-1.329,-0.891 -2.889,-1.202 -4.682,-0.936c-7.615,-1.883 -15.106,-3.756 -22.476,-5.619c1.725,-0.209 3.442,-0.522 5.151,-0.936c5.063,1.937 10.369,2.873 15.92,2.809c18.184,0.06 36.133,0.06 53.848,0c1.873,0.625 3.746,1.248 5.619,1.873c3.509,-1.068 6.943,-2.16 10.301,-3.278c-2.101,-0.047 -3.663,-0.827 -4.682,-2.341Z" style="fill:#4b9eae;"/></g></svg>