<?xml version="1.0" encoding="UTF-8"?>
<!DOCTYPE svg PUBLIC "-//W3C//DTD SVG 1.1//EN" "http://www.w3.org/Graphics/SVG/1.1/DTD/svg11.dtd">
<svg xmlns="http://www.w3.org/2000/svg" version="1.1" width="595px" height="614px" style="shape-rendering:geometricPrecision; text-rendering:geometricPrecision; image-rendering:optimizeQuality; fill-rule:evenodd; clip-rule:evenodd" xmlns:xlink="http://www.w3.org/1999/xlink">
<g><path style="opacity:1" fill="#59a1ac" d="M 285.5,-0.5 C 293.833,-0.5 302.167,-0.5 310.5,-0.5C 322.576,0.600838 334.576,2.2675 346.5,4.5C 328.856,3.80366 311.023,3.13699 293,2.5C 283.833,2.66667 274.667,2.83333 265.5,3C 265.833,3.33333 266.167,3.66667 266.5,4C 260.804,4.17009 255.138,4.67009 249.5,5.5C 246.705,5.93846 244.372,6.93846 242.5,8.5C 236.457,8.01304 230.457,9.01304 224.5,11.5C 222.668,12.0568 221.335,13.0568 220.5,14.5C 217.833,14.5 215.167,14.5 212.5,14.5C 212.911,17.2763 212.078,17.943 210,16.5C 204.534,17.8646 199.034,19.3646 193.5,21C 192.672,21.9147 191.672,22.5814 190.5,23C 190.833,23.3333 191.167,23.6667 191.5,24C 188.73,25.1146 186.23,26.6146 184,28.5C 182.599,26.8078 180.766,26.1412 178.5,26.5C 178.5,27.8333 178.5,29.1667 178.5,30.5C 176.097,30.552 173.764,30.2186 171.5,29.5C 207.349,11.554 245.349,1.55401 285.5,-0.5 Z"/></g>
<g><path style="opacity:1" fill="#3da1ba" d="M 346.5,4.5 C 346.33,5.82207 346.663,6.98873 347.5,8C 349.5,8.33333 351.5,8.66667 353.5,9C 354.357,9.68909 355.023,10.5224 355.5,11.5C 352.572,12.4841 349.572,12.8174 346.5,12.5C 346.5,13.8333 346.5,15.1667 346.5,16.5C 349.144,16.8399 351.477,16.1733 353.5,14.5C 354.192,15.0253 354.692,15.6919 355,16.5C 358.464,15.3157 361.464,13.3157 364,10.5C 373.394,12.1878 382.561,14.8545 391.5,18.5C 392.562,17.5754 392.562,16.5754 391.5,15.5C 393.284,15.8925 394.95,16.5592 396.5,17.5C 396.5,18.5 396.5,19.5 396.5,20.5C 401.99,23.1084 407.656,25.4417 413.5,27.5C 414.308,29.9252 415.308,32.2585 416.5,34.5C 417.328,33.5853 418.328,32.9186 419.5,32.5C 421.347,33.511 423.18,34.511 425,35.5C 426.494,34.2528 427.994,34.2528 429.5,35.5C 430.348,37.4086 430.682,39.4086 430.5,41.5C 432.124,41.6399 433.29,40.9733 434,39.5C 435.272,43.9399 438.106,46.9399 442.5,48.5C 446.761,45.5231 450.594,45.8565 454,49.5C 456.321,48.6387 457.487,49.6387 457.5,52.5C 458.5,52.5 459.5,52.5 460.5,52.5C 460.5,53.8333 460.5,55.1667 460.5,56.5C 459.5,56.5 458.5,56.5 457.5,56.5C 457.238,57.9778 457.571,59.3112 458.5,60.5C 459.72,59.2889 460.887,59.2889 462,60.5C 464.196,57.0378 466.696,57.0378 469.5,60.5C 470.183,60.1373 470.85,59.8039 471.5,59.5C 474.117,60.7859 476.45,62.4525 478.5,64.5C 479.791,65.4728 479.791,66.4728 478.5,67.5C 481.969,68.8307 484.302,71.164 485.5,74.5C 486.833,74.5 488.167,74.5 489.5,74.5C 490.584,77.0972 491.918,79.5972 493.5,82C 493.167,82.3333 492.833,82.6667 492.5,83C 494.594,84.3515 496.927,84.8515 499.5,84.5C 499.5,86.5 499.5,88.5 499.5,90.5C 501.621,90.6747 503.621,90.3414 505.5,89.5C 507.167,90.5 508.5,91.8333 509.5,93.5C 509.5,95.1667 509.5,96.8333 509.5,98.5C 511.698,99.0144 513.698,100.014 515.5,101.5C 516.134,103.567 517.134,105.4 518.5,107C 518.167,107.333 517.833,107.667 517.5,108C 518.938,108.219 520.271,108.719 521.5,109.5C 525.828,115.002 529.995,120.669 534,126.5C 534.77,125.402 535.603,125.402 536.5,126.5C 539.195,134.222 543.195,141.222 548.5,147.5C 547.624,148.251 546.624,148.751 545.5,149C 547.512,151.956 550.179,153.789 553.5,154.5C 553.854,156.541 553.854,158.374 553.5,160C 554.448,160.483 555.448,160.649 556.5,160.5C 557.68,166.182 560.013,171.349 563.5,176C 563.355,176.772 563.022,177.439 562.5,178C 563.793,178.49 565.127,178.657 566.5,178.5C 565.527,181.298 565.527,183.798 566.5,186C 567.448,186.483 568.448,186.649 569.5,186.5C 569.5,188.5 569.5,190.5 569.5,192.5C 570.5,192.5 571.5,192.5 572.5,192.5C 572.678,195.879 572.678,199.045 572.5,202C 574.65,204.041 575.65,206.541 575.5,209.5C 575.5,210.5 575.5,211.5 575.5,212.5C 573.362,212.297 571.695,211.297 570.5,209.5C 569.413,212.401 570.246,214.734 573,216.5C 574.011,215.663 575.178,215.33 576.5,215.5C 576.558,218.664 577.224,221.664 578.5,224.5C 579.5,224.5 580.5,224.5 581.5,224.5C 581.5,225.833 581.5,227.167 581.5,228.5C 580.5,228.5 579.5,228.5 578.5,228.5C 578.5,227.5 578.5,226.5 578.5,225.5C 577.5,225.5 576.5,225.5 575.5,225.5C 575.786,227.277 576.453,228.944 577.5,230.5C 576.867,233.772 577.034,237.105 578,240.5C 578.483,239.552 578.649,238.552 578.5,237.5C 580.262,237.357 581.929,237.691 583.5,238.5C 583.833,237.5 584.167,236.5 584.5,235.5C 582.927,231.302 582.26,226.969 582.5,222.5C 584.074,225.907 585.074,229.573 585.5,233.5C 585.334,238.511 585.501,243.511 586,248.5C 587.724,257.86 589.557,267.193 591.5,276.5C 592.029,287.617 591.363,298.784 589.5,310C 590.1,313.903 590.1,317.737 589.5,321.5C 589.964,324.349 590.631,327.016 591.5,329.5C 588.953,348.119 586.62,366.786 584.5,385.5C 584.737,386.791 584.404,387.791 583.5,388.5C 582.325,388.281 581.325,388.614 580.5,389.5C 579.907,391.382 579.24,393.215 578.5,395C 578.833,395.333 579.167,395.667 579.5,396C 578.55,399.622 577.217,403.122 575.5,406.5C 576.529,408.803 576.529,411.136 575.5,413.5C 573.883,414.589 573.05,416.256 573,418.5C 572.667,417.833 572.333,417.167 572,416.5C 571.503,419.146 571.336,421.813 571.5,424.5C 571.107,426.284 570.441,427.95 569.5,429.5C 568.234,430.09 566.901,430.59 565.5,431C 565.833,431.333 566.167,431.667 566.5,432C 564.588,435.236 563.588,438.736 563.5,442.5C 562.5,442.5 561.5,442.5 560.5,442.5C 559.424,445.734 558.757,449.068 558.5,452.5C 555.754,452.928 554.087,454.594 553.5,457.5C 552.372,458.262 551.205,458.929 550,459.5C 548.801,462.726 548.301,466.059 548.5,469.5C 547.85,469.196 547.183,468.863 546.5,468.5C 543.653,472.523 541.653,476.856 540.5,481.5C 540.573,483.027 539.906,484.027 538.5,484.5C 537.127,484.343 535.793,484.51 534.5,485C 534.833,485.333 535.167,485.667 535.5,486C 533.684,488.317 531.684,490.484 529.5,492.5C 527.917,494.99 526.917,497.657 526.5,500.5C 525.178,500.67 524.011,500.337 523,499.5C 522.02,501.059 521.187,502.726 520.5,504.5C 518.831,503.329 517.331,501.996 516,500.5C 513.964,500.954 512.13,501.787 510.5,503C 518.944,504.474 519.611,508.141 512.5,514C 513.252,514.671 513.586,515.504 513.5,516.5C 511.272,519.64 508.605,522.306 505.5,524.5C 501.98,526.002 498.98,528.336 496.5,531.5C 495.311,532.429 493.978,532.762 492.5,532.5C 492.5,533.833 492.5,535.167 492.5,536.5C 489.407,537.229 486.907,538.896 485,541.5C 484.667,541.167 484.333,540.833 484,540.5C 483.51,541.793 483.343,543.127 483.5,544.5C 482.415,546.587 480.749,547.92 478.5,548.5C 476.833,548.5 475.167,548.5 473.5,548.5C 473.649,549.552 473.483,550.552 473,551.5C 471.989,550.663 470.822,550.33 469.5,550.5C 469.5,551.833 469.5,553.167 469.5,554.5C 466.463,555.85 463.463,557.35 460.5,559C 460.833,559.333 461.167,559.667 461.5,560C 460.207,560.49 458.873,560.657 457.5,560.5C 457.5,561.833 457.5,563.167 457.5,564.5C 454.516,566.996 451.182,568.996 447.5,570.5C 436.673,571.574 428.006,576.24 421.5,584.5C 415.494,585.319 409.494,586.319 403.5,587.5C 401.995,588.842 401.328,590.508 401.5,592.5C 397.657,591.774 394.99,593.108 393.5,596.5C 385.714,597.208 378.048,598.541 370.5,600.5C 368.738,600.357 367.071,600.691 365.5,601.5C 364.571,600.311 364.238,598.978 364.5,597.5C 361.813,597.336 359.146,597.503 356.5,598C 358.134,598.494 359.801,598.66 361.5,598.5C 361.5,599.833 361.5,601.167 361.5,602.5C 358.921,602.917 356.754,602.25 355,600.5C 354.683,602.301 354.016,602.634 353,601.5C 350.165,604.03 347.331,603.863 344.5,601C 338.5,600.333 332.5,600.333 326.5,601C 327.967,602.098 328.801,603.598 329,605.5C 332.057,604.549 335.223,604.216 338.5,604.5C 339.589,606.117 341.256,606.95 343.5,607C 339.914,608.193 336.247,609.36 332.5,610.5C 330.5,609.833 328.5,609.167 326.5,608.5C 307.584,608.564 288.417,608.564 269,608.5C 263.072,608.568 257.406,607.568 252,605.5C 250.175,605.943 248.342,606.277 246.5,606.5C 243.167,606.5 239.833,606.5 236.5,606.5C 235.833,606.5 235.167,606.5 234.5,606.5C 234.389,605.883 234.056,605.383 233.5,605C 226.201,602.248 218.868,599.581 211.5,597C 208.183,596.502 204.85,596.335 201.5,596.5C 198.268,594.308 194.934,591.975 191.5,589.5C 190.572,588.232 190.405,586.899 191,585.5C 192.494,586.747 193.994,586.747 195.5,585.5C 192.015,582.023 188.015,580.69 183.5,581.5C 185.005,582.842 185.672,584.508 185.5,586.5C 186.833,586.5 188.167,586.5 189.5,586.5C 189.5,587.833 189.5,589.167 189.5,590.5C 188.5,590.5 187.5,590.5 186.5,590.5C 183.088,589.958 180.088,588.625 177.5,586.5C 177.918,585.778 178.584,585.278 179.5,585C 175.091,582.887 170.758,580.721 166.5,578.5C 166.657,577.127 166.49,575.793 166,574.5C 163.077,577.121 160.577,576.621 158.5,573C 155.676,572.772 153.343,571.605 151.5,569.5C 151.709,568.914 152.043,568.414 152.5,568C 150.263,564.742 147.763,564.242 145,566.5C 143.195,563.961 140.695,562.961 137.5,563.5C 137.5,562.5 137.5,561.5 137.5,560.5C 136.127,560.657 134.793,560.49 133.5,560C 133.833,559.667 134.167,559.333 134.5,559C 131.036,557.191 127.869,555.024 125,552.5C 124.7,554.066 125.2,555.399 126.5,556.5C 124.251,555.92 122.585,554.587 121.5,552.5C 121.5,551.167 121.5,549.833 121.5,548.5C 120.325,548.719 119.325,548.386 118.5,547.5C 119.5,546.167 120.5,544.833 121.5,543.5C 119.576,541.991 118.409,539.991 118,537.5C 117.481,538.516 116.647,539.182 115.5,539.5C 113.895,538.57 112.395,538.57 111,539.5C 107.867,536.825 105.034,533.825 102.5,530.5C 101.137,531.879 100.137,531.713 99.5,530C 101.141,528.354 100.807,527.354 98.5,527C 99.8333,526.333 99.8333,525.667 98.5,525C 100.158,524.275 100.658,523.108 100,521.5C 98.6538,524.249 97.3204,524.583 96,522.5C 95.6667,522.833 95.3333,523.167 95,523.5C 94.2904,522.027 93.1238,521.36 91.5,521.5C 91.5,520.5 91.5,519.5 91.5,518.5C 90.1667,518.5 88.8333,518.5 87.5,518.5C 88.79,515.36 87.9566,512.694 85,510.5C 84.6667,511.167 84.3333,511.833 84,512.5C 82.2613,510.717 80.4279,509.05 78.5,507.5C 77.3112,506.571 75.9778,506.238 74.5,506.5C 73.8505,504.565 73.5172,502.565 73.5,500.5C 71.2011,499.862 69.0344,498.862 67,497.5C 64.3297,493.009 61.4964,488.675 58.5,484.5C 57.5713,483.311 57.238,481.978 57.5,480.5C 56.5,480.5 55.5,480.5 54.5,480.5C 54.33,479.178 54.6634,478.011 55.5,477C 54.062,476.781 52.7287,476.281 51.5,475.5C 48.839,470.358 46.5057,465.525 44.5,461C 43.552,460.517 42.552,460.351 41.5,460.5C 41.6567,459.127 41.49,457.793 41,456.5C 37.976,451.408 35.476,446.074 33.5,440.5C 36.4797,440.759 38.313,439.426 39,436.5C 39.4993,431.511 39.6659,426.511 39.5,421.5C 38.1667,421.5 36.8333,421.5 35.5,421.5C 35.7684,425.646 34.6017,429.313 32,432.5C 31.7216,431.584 31.2216,430.918 30.5,430.5C 28.7151,428.866 26.7151,427.532 24.5,426.5C 24.6488,423.393 24.1488,420.393 23,417.5C 22.6174,418.056 22.1174,418.389 21.5,418.5C 21.1037,413.046 20.1037,407.712 18.5,402.5C 18.6901,399.842 19.3568,397.342 20.5,395C 20.3333,394.5 20.1667,394 20,393.5C 18.6667,394.833 17.3333,394.833 16,393.5C 15.7132,391.109 15.2132,388.776 14.5,386.5C 15.3829,385.452 16.0496,384.285 16.5,383C 14.9848,382.574 13.9848,381.074 13.5,378.5C 12.4593,380.991 11.6259,380.991 11,378.5C 9.99073,372.375 8.82406,366.375 7.5,360.5C 9.37599,356.252 10.0427,351.919 9.5,347.5C 8.62489,345.227 6.95822,344.227 4.5,344.5C 4.21083,340.894 4.54416,337.394 5.5,334C 4.02061,328.986 3.35394,323.819 3.5,318.5C 3.9825,308.832 4.4825,299.166 5,289.5C 5.86463,287.775 6.5313,286.108 7,284.5C 7.68688,286.568 7.52022,288.568 6.5,290.5C 8.10443,292.628 9.10443,292.628 9.5,290.5C 9.0465,287.778 8.37983,285.111 7.5,282.5C 6.52242,282.977 5.68909,283.643 5,284.5C 4.19234,282.421 4.35901,280.421 5.5,278.5C 6.63476,277.897 7.63476,277.564 8.5,277.5C 7.16667,276.833 5.83333,276.167 4.5,275.5C 4.65428,271.348 4.65428,267.015 4.5,262.5C 5.32423,259.236 5.65757,255.902 5.5,252.5C 6.21449,246.249 7.54782,240.249 9.5,234.5C 10.2679,235.263 10.7679,236.263 11,237.5C 11.4652,236.069 12.2986,234.903 13.5,234C 12.6919,233.692 12.0253,233.192 11.5,232.5C 15.1264,224.173 17.6264,215.506 19,206.5C 19.6667,205.833 20.3333,205.167 21,204.5C 21.0984,201.478 21.9318,198.811 23.5,196.5C 24.8333,196.5 26.1667,196.5 27.5,196.5C 27.3601,194.876 28.0267,193.71 29.5,193C 28.6862,189.578 29.6862,186.578 32.5,184C 29.054,180.269 29.2206,177.102 33,174.5C 35.6581,179.781 36.1581,185.281 34.5,191C 35.3317,191.688 35.9984,191.521 36.5,190.5C 37.9852,186.895 39.3185,183.228 40.5,179.5C 38.5333,177.735 37.2,175.569 36.5,173C 37.8333,171.391 39.3333,169.891 41,168.5C 38.6809,161.739 40.5142,156.073 46.5,151.5C 47.6888,150.571 49.0222,150.238 50.5,150.5C 50.3505,149.448 50.5172,148.448 51,147.5C 51.8928,148.711 52.7261,148.711 53.5,147.5C 49.4493,142.828 50.116,139.828 55.5,138.5C 55.7573,135.068 56.424,131.734 57.5,128.5C 58.4333,125.63 60.1,123.296 62.5,121.5C 63.7079,120.766 65.0413,120.433 66.5,120.5C 66.5,119.167 66.5,117.833 66.5,116.5C 67.8333,116.5 69.1667,116.5 70.5,116.5C 70.5,114.5 70.5,112.5 70.5,110.5C 71.7498,110.577 72.5831,111.244 73,112.5C 73.3333,110.833 73.6667,109.167 74,107.5C 75.8254,106.897 77.6587,106.23 79.5,105.5C 80.6709,101.163 83.1709,97.8301 87,95.5C 87.414,95.9574 87.914,96.2907 88.5,96.5C 89.4656,94.604 89.7989,92.604 89.5,90.5C 92.4857,91.3551 95.4857,91.8551 98.5,92C 98.2429,89.4646 97.5763,87.1313 96.5,85C 102.388,84.9417 105.388,82.1084 105.5,76.5C 109.416,73.6106 113.416,70.6106 117.5,67.5C 119.68,65.7392 121.346,63.5726 122.5,61C 123.793,60.51 125.127,60.3433 126.5,60.5C 126.433,59.0413 126.766,57.7079 127.5,56.5C 129.857,56.6633 132.19,56.4966 134.5,56C 132.431,55.6758 132.098,54.8425 133.5,53.5C 136.865,51.3478 140.532,50.3478 144.5,50.5C 144.5,49.1667 144.5,47.8333 144.5,46.5C 147.403,45.715 150.07,44.3817 152.5,42.5C 153.429,43.6888 153.762,45.0222 153.5,46.5C 155.924,46.8076 158.257,46.4742 160.5,45.5C 163.364,41.7673 165.697,37.7673 167.5,33.5C 168.816,33.4316 170.15,33.4316 171.5,33.5C 170.193,32.135 170.193,30.8016 171.5,29.5C 173.764,30.2186 176.097,30.552 178.5,30.5C 178.5,29.1667 178.5,27.8333 178.5,26.5C 180.766,26.1412 182.599,26.8078 184,28.5C 186.23,26.6146 188.73,25.1146 191.5,24C 191.167,23.6667 190.833,23.3333 190.5,23C 191.672,22.5814 192.672,21.9147 193.5,21C 199.034,19.3646 204.534,17.8646 210,16.5C 212.078,17.943 212.911,17.2763 212.5,14.5C 215.167,14.5 217.833,14.5 220.5,14.5C 225.118,15.079 229.285,14.079 233,11.5C 233.483,12.448 233.649,13.448 233.5,14.5C 238.43,15.5946 243.43,16.2612 248.5,16.5C 248.5,15.1667 248.5,13.8333 248.5,12.5C 245.112,13.0306 243.112,11.6973 242.5,8.5C 244.372,6.93846 246.705,5.93846 249.5,5.5C 255.138,4.67009 260.804,4.17009 266.5,4C 266.167,3.66667 265.833,3.33333 265.5,3C 274.667,2.83333 283.833,2.66667 293,2.5C 311.023,3.13699 328.856,3.80366 346.5,4.5 Z"/></g>
<g><path style="opacity:1" fill="#33a0b1" d="M 242.5,8.5 C 243.112,11.6973 245.112,13.0306 248.5,12.5C 248.5,13.8333 248.5,15.1667 248.5,16.5C 243.43,16.2612 238.43,15.5946 233.5,14.5C 233.649,13.448 233.483,12.448 233,11.5C 229.285,14.079 225.118,15.079 220.5,14.5C 221.335,13.0568 222.668,12.0568 224.5,11.5C 230.457,9.01304 236.457,8.01304 242.5,8.5 Z"/></g>
<g><path style="opacity:1" fill="#4da1af" d="M 346.5,4.5 C 361.936,6.4423 376.936,10.109 391.5,15.5C 392.562,16.5754 392.562,17.5754 391.5,18.5C 382.561,14.8545 373.394,12.1878 364,10.5C 361.464,13.3157 358.464,15.3157 355,16.5C 354.692,15.6919 354.192,15.0253 353.5,14.5C 351.477,16.1733 349.144,16.8399 346.5,16.5C 346.5,15.1667 346.5,13.8333 346.5,12.5C 349.572,12.8174 352.572,12.4841 355.5,11.5C 355.023,10.5224 354.357,9.68909 353.5,9C 351.5,8.66667 349.5,8.33333 347.5,8C 346.663,6.98873 346.33,5.82207 346.5,4.5 Z"/></g>
<g><path style="opacity:1" fill="#79b1ba" d="M 415.5,25.5 C 419.151,26.6589 422.485,28.3256 425.5,30.5C 421.239,30.5474 417.906,28.8808 415.5,25.5 Z"/></g>
<g><path style="opacity:1" fill="#48a2b0" d="M 171.5,29.5 C 170.193,30.8016 170.193,32.135 171.5,33.5C 170.15,33.4316 168.816,33.4316 167.5,33.5C 165.697,37.7673 163.364,41.7673 160.5,45.5C 158.257,46.4742 155.924,46.8076 153.5,46.5C 153.762,45.0222 153.429,43.6888 152.5,42.5C 150.07,44.3817 147.403,45.715 144.5,46.5C 144.5,47.8333 144.5,49.1667 144.5,50.5C 140.532,50.3478 136.865,51.3478 133.5,53.5C 132.098,54.8425 132.431,55.6758 134.5,56C 132.19,56.4966 129.857,56.6633 127.5,56.5C 140.776,45.5145 155.443,36.5145 171.5,29.5 Z"/></g>
<g><path style="opacity:1" fill="#46a1b0" d="M 396.5,17.5 C 403.236,19.4058 409.569,22.0725 415.5,25.5C 417.906,28.8808 421.239,30.5474 425.5,30.5C 442.199,38.1728 457.532,47.8395 471.5,59.5C 470.85,59.8039 470.183,60.1373 469.5,60.5C 466.696,57.0378 464.196,57.0378 462,60.5C 460.887,59.2889 459.72,59.2889 458.5,60.5C 457.571,59.3112 457.238,57.9778 457.5,56.5C 458.5,56.5 459.5,56.5 460.5,56.5C 460.5,55.1667 460.5,53.8333 460.5,52.5C 459.5,52.5 458.5,52.5 457.5,52.5C 457.487,49.6387 456.321,48.6387 454,49.5C 450.594,45.8565 446.761,45.5231 442.5,48.5C 438.106,46.9399 435.272,43.9399 434,39.5C 433.29,40.9733 432.124,41.6399 430.5,41.5C 430.682,39.4086 430.348,37.4086 429.5,35.5C 427.994,34.2528 426.494,34.2528 425,35.5C 423.18,34.511 421.347,33.511 419.5,32.5C 418.328,32.9186 417.328,33.5853 416.5,34.5C 415.308,32.2585 414.308,29.9252 413.5,27.5C 407.656,25.4417 401.99,23.1084 396.5,20.5C 396.5,19.5 396.5,18.5 396.5,17.5 Z"/></g>
<g><path style="opacity:1" fill="#63a9ae" d="M 478.5,64.5 C 482.791,67.1231 486.457,70.4564 489.5,74.5C 488.167,74.5 486.833,74.5 485.5,74.5C 484.302,71.164 481.969,68.8307 478.5,67.5C 479.791,66.4728 479.791,65.4728 478.5,64.5 Z"/></g>
<g><path style="opacity:1" fill="#4fa0ac" d="M 127.5,56.5 C 126.766,57.7079 126.433,59.0413 126.5,60.5C 125.127,60.3433 123.793,60.51 122.5,61C 121.346,63.5726 119.68,65.7392 117.5,67.5C 113.416,70.6106 109.416,73.6106 105.5,76.5C 105.388,82.1084 102.388,84.9417 96.5,85C 97.5763,87.1313 98.2429,89.4646 98.5,92C 95.4857,91.8551 92.4857,91.3551 89.5,90.5C 89.7989,92.604 89.4656,94.604 88.5,96.5C 87.914,96.2907 87.414,95.9574 87,95.5C 83.1709,97.8301 80.6709,101.163 79.5,105.5C 77.6587,106.23 75.8254,106.897 74,107.5C 73.6667,109.167 73.3333,110.833 73,112.5C 72.5831,111.244 71.7498,110.577 70.5,110.5C 77.7585,100.572 86.0918,91.5722 95.5,83.5C 96.8333,82.8333 97.8333,81.8333 98.5,80.5C 104.611,74.5609 110.944,68.7276 117.5,63C 120.72,60.5633 124.053,58.3967 127.5,56.5 Z"/></g>
<g><path style="opacity:1" fill="#a0d5df" d="M 98.5,80.5 C 97.8333,81.8333 96.8333,82.8333 95.5,83.5C 95.5,81.5 96.5,80.5 98.5,80.5 Z"/></g>
<g><path style="opacity:1" fill="#52a4b2" d="M 489.5,74.5 C 495.489,78.823 500.822,83.823 505.5,89.5C 503.621,90.3414 501.621,90.6747 499.5,90.5C 499.5,88.5 499.5,86.5 499.5,84.5C 496.927,84.8515 494.594,84.3515 492.5,83C 492.833,82.6667 493.167,82.3333 493.5,82C 491.918,79.5972 490.584,77.0972 489.5,74.5 Z"/></g>
<g><path style="opacity:1" fill="#61a5b0" d="M 509.5,93.5 C 519.598,103.598 528.598,114.598 536.5,126.5C 535.603,125.402 534.77,125.402 534,126.5C 529.995,120.669 525.828,115.002 521.5,109.5C 520.271,108.719 518.938,108.219 517.5,108C 517.833,107.667 518.167,107.333 518.5,107C 517.134,105.4 516.134,103.567 515.5,101.5C 513.698,100.014 511.698,99.0144 509.5,98.5C 509.5,96.8333 509.5,95.1667 509.5,93.5 Z"/></g>
<g><path style="opacity:1" fill="#67a7b1" d="M 70.5,110.5 C 70.5,112.5 70.5,114.5 70.5,116.5C 69.1667,116.5 67.8333,116.5 66.5,116.5C 66.5,117.833 66.5,119.167 66.5,120.5C 65.0413,120.433 63.7079,120.766 62.5,121.5C 64.6361,117.436 67.3028,113.77 70.5,110.5 Z"/></g>
<g><path style="opacity:1" fill="#f9f9f9" d="M 207.5,214.5 C 205.901,214.768 204.568,214.434 203.5,213.5C 226.026,202.736 248.359,191.736 270.5,180.5C 277.691,177.403 284.691,174.07 291.5,170.5C 305.39,164.054 319.056,157.387 332.5,150.5C 334.153,150.34 335.486,149.674 336.5,148.5C 347.579,143.714 358.246,138.381 368.5,132.5C 383.012,126.321 395.512,128.987 406,140.5C 410.106,148.378 413.939,156.378 417.5,164.5C 347.442,181.308 277.442,197.975 207.5,214.5 Z"/></g>
<g><path style="opacity:1" fill="#4f9aa8" d="M 368.5,132.5 C 358.246,138.381 347.579,143.714 336.5,148.5C 339.356,145.14 343.023,142.973 347.5,142C 347.167,141.667 346.833,141.333 346.5,141C 351.98,139.285 356.98,136.952 361.5,134C 361.727,132.865 362.06,131.698 362.5,130.5C 364.179,132.104 366.179,132.771 368.5,132.5 Z"/></g>
<g><path style="opacity:1" fill="#439bad" d="M 332.5,150.5 C 319.056,157.387 305.39,164.054 291.5,170.5C 292.446,167.687 294.446,166.354 297.5,166.5C 297.5,165.167 297.5,163.833 297.5,162.5C 298.552,162.649 299.552,162.483 300.5,162C 299.167,161.333 299.167,160.667 300.5,160C 304.967,157.766 309.634,156.099 314.5,155C 315.45,152.09 317.45,150.923 320.5,151.5C 320.351,152.552 320.517,153.552 321,154.5C 323.9,150.884 327.734,149.551 332.5,150.5 Z"/></g>
<g><path style="opacity:1" fill="#60a6b1" d="M 536.5,126.5 C 548.531,142.55 558.531,159.884 566.5,178.5C 565.127,178.657 563.793,178.49 562.5,178C 563.022,177.439 563.355,176.772 563.5,176C 560.013,171.349 557.68,166.182 556.5,160.5C 555.448,160.649 554.448,160.483 553.5,160C 553.854,158.374 553.854,156.541 553.5,154.5C 550.179,153.789 547.512,151.956 545.5,149C 546.624,148.751 547.624,148.251 548.5,147.5C 543.195,141.222 539.195,134.222 536.5,126.5 Z"/></g>
<g><path style="opacity:1" fill="#4b9faf" d="M 473.5,220.5 C 468.345,221.11 463.678,219.944 459.5,217C 421.501,216.5 383.501,216.333 345.5,216.5C 319.833,216.5 294.167,216.5 268.5,216.5C 258.884,217.029 249.384,216.363 240,214.5C 236.993,215.979 233.826,216.646 230.5,216.5C 228.473,216.662 226.473,216.495 224.5,216C 224.833,215.667 225.167,215.333 225.5,215C 219.509,214.501 213.509,214.334 207.5,214.5C 277.442,197.975 347.442,181.308 417.5,164.5C 413.939,156.378 410.106,148.378 406,140.5C 395.512,128.987 383.012,126.321 368.5,132.5C 368.539,131.417 368.873,130.417 369.5,129.5C 371.407,128.63 373.24,127.63 375,126.5C 381.197,126.17 387.364,126.836 393.5,128.5C 393.362,124.811 395.028,122.977 398.5,123C 397.62,124.356 397.286,125.856 397.5,127.5C 400.613,128.223 403.279,129.723 405.5,132C 404.044,132.423 403.544,133.256 404,134.5C 405.385,135.551 406.385,136.884 407,138.5C 407.333,137.833 407.667,137.167 408,136.5C 407.734,139.901 409.234,141.567 412.5,141.5C 412.281,142.675 412.614,143.675 413.5,144.5C 414.396,143.494 415.062,143.494 415.5,144.5C 414.047,146.644 414.38,148.477 416.5,150C 415.978,150.561 415.645,151.228 415.5,152C 417.569,157.306 418.569,162.806 418.5,168.5C 423.621,169.729 428.454,169.063 433,166.5C 436.122,168.98 439.122,168.98 442,166.5C 444.525,171.031 448.359,174.031 453.5,175.5C 455.28,180.661 458.613,183.328 463.5,183.5C 462.379,189.114 462.212,194.78 463,200.5C 464.188,199.437 464.688,198.103 464.5,196.5C 467.896,196.633 468.229,197.633 465.5,199.5C 465.977,200.478 466.643,201.311 467.5,202C 466.544,205.394 466.211,208.894 466.5,212.5C 467.833,212.5 469.167,212.5 470.5,212.5C 470.272,210.645 470.939,209.812 472.5,210C 473.38,211.356 473.714,212.856 473.5,214.5C 469.7,214.819 469.534,215.819 473,217.5C 473.483,218.448 473.649,219.448 473.5,220.5 Z"/></g>
<g><path style="opacity:1" fill="#3799b2" d="M 400.5,171.5 C 405.65,170.349 410.984,170.183 416.5,171C 414.285,171.388 412.952,172.388 412.5,174C 405.043,175.493 397.543,176.66 390,177.5C 385.864,176.1 385.697,174.6 389.5,173C 394.591,172.926 398.257,172.426 400.5,171.5 Z"/></g>
<g><path style="opacity:1" fill="#f9f9f9" d="M 262.5,215.5 C 257.167,214.833 251.833,214.167 246.5,213.5C 256.672,211.79 266.672,209.457 276.5,206.5C 285.479,205.374 294.146,203.374 302.5,200.5C 343.884,191.324 385.217,181.824 426.5,172C 441.809,168.904 452.643,174.404 459,188.5C 461.156,197.113 462.989,205.779 464.5,214.5C 397.125,214.174 329.792,214.507 262.5,215.5 Z"/></g>
<g><path style="opacity:1" fill="#47a1b0" d="M 57.5,128.5 C 56.424,131.734 55.7573,135.068 55.5,138.5C 50.116,139.828 49.4493,142.828 53.5,147.5C 52.7261,148.711 51.8928,148.711 51,147.5C 50.5172,148.448 50.3505,149.448 50.5,150.5C 49.0222,150.238 47.6888,150.571 46.5,151.5C 40.5142,156.073 38.6809,161.739 41,168.5C 39.3333,169.891 37.8333,171.391 36.5,173C 37.2,175.569 38.5333,177.735 40.5,179.5C 39.3185,183.228 37.9852,186.895 36.5,190.5C 35.9984,191.521 35.3317,191.688 34.5,191C 36.1581,185.281 35.6581,179.781 33,174.5C 29.2206,177.102 29.054,180.269 32.5,184C 29.6862,186.578 28.6862,189.578 29.5,193C 28.0267,193.71 27.3601,194.876 27.5,196.5C 26.1667,196.5 24.8333,196.5 23.5,196.5C 25.0233,193.365 25.69,190.032 25.5,186.5C 32.1495,168.867 40.6495,152.201 51,136.5C 53.0308,133.645 55.1975,130.978 57.5,128.5 Z"/></g>
<g><path style="opacity:1" fill="#6aabb2" d="M 566.5,178.5 C 569.065,182.844 571.065,187.51 572.5,192.5C 571.5,192.5 570.5,192.5 569.5,192.5C 569.5,190.5 569.5,188.5 569.5,186.5C 568.448,186.649 567.448,186.483 566.5,186C 565.527,183.798 565.527,181.298 566.5,178.5 Z"/></g>
<g><path style="opacity:1" fill="#449dab" d="M 270.5,180.5 C 248.359,191.736 226.026,202.736 203.5,213.5C 202.637,214.463 201.97,214.463 201.5,213.5C 202.309,211.929 202.643,210.262 202.5,208.5C 204.661,208.174 206.494,207.174 208,205.5C 208.333,205.833 208.667,206.167 209,206.5C 208.834,202 211,199.833 215.5,200C 216.284,197.002 217.951,196.169 220.5,197.5C 218.244,198.421 217.244,200.088 217.5,202.5C 220.346,202.97 222.679,202.137 224.5,200C 223.66,198.334 224.16,198.167 226,199.5C 228.433,197.374 231.266,196.041 234.5,195.5C 235.641,194.575 235.641,193.741 234.5,193C 235.624,192.751 236.624,192.251 237.5,191.5C 240.603,191.243 243.603,190.743 246.5,190C 253.09,183.548 261.09,180.382 270.5,180.5 Z"/></g>
<g><path style="opacity:1" fill="#4b99a4" d="M 302.5,200.5 C 294.146,203.374 285.479,205.374 276.5,206.5C 279.741,204.538 283.075,202.538 286.5,200.5C 287.833,201.167 289.167,201.833 290.5,202.5C 294.241,200.669 298.241,200.003 302.5,200.5 Z"/></g>
<g><path style="opacity:1" fill="#5ea5af" d="M 572.5,192.5 C 576.806,202.086 580.14,212.086 582.5,222.5C 581.317,221.496 579.984,220.662 578.5,220C 578.957,219.586 579.291,219.086 579.5,218.5C 578.816,215.113 577.482,212.113 575.5,209.5C 575.65,206.541 574.65,204.041 572.5,202C 572.678,199.045 572.678,195.879 572.5,192.5 Z"/></g>
<g><path style="opacity:1" fill="#86c6d4" d="M 246.5,213.5 C 251.833,214.167 257.167,214.833 262.5,215.5C 256.794,215.829 251.128,215.495 245.5,214.5C 245.624,213.893 245.957,213.56 246.5,213.5 Z"/></g>
<g><path style="opacity:1" fill="#5fa3ae" d="M 25.5,186.5 C 25.69,190.032 25.0233,193.365 23.5,196.5C 21.9318,198.811 21.0984,201.478 21,204.5C 20.3333,205.167 19.6667,205.833 19,206.5C 17.6264,215.506 15.1264,224.173 11.5,232.5C 12.0253,233.192 12.6919,233.692 13.5,234C 12.2986,234.903 11.4652,236.069 11,237.5C 10.7679,236.263 10.2679,235.263 9.5,234.5C 12.6608,217.684 17.9941,201.684 25.5,186.5 Z"/></g>
<g><path style="opacity:1" fill="#4397a4" d="M 251.5,222.5 C 324.167,222.5 396.833,222.5 469.5,222.5C 473.654,222.09 476.321,222.423 477.5,223.5C 368.833,223.333 260.166,223.5 151.5,224C 147.55,224.778 143.883,226.278 140.5,228.5C 139.5,228.5 138.5,228.5 137.5,228.5C 137.577,227.25 138.244,226.417 139.5,226C 139.167,225.667 138.833,225.333 138.5,225C 141.646,224.89 142.646,223.557 141.5,221C 145.69,220.622 149.524,219.455 153,217.5C 153.483,218.448 153.649,219.448 153.5,220.5C 186.098,221.216 218.764,221.883 251.5,222.5 Z"/></g>
<g><path style="opacity:1" fill="#399bb4" d="M 268.5,216.5 C 268.611,217.117 268.944,217.617 269.5,218C 278.874,218.371 288.207,219.204 297.5,220.5C 308.417,219.917 319.251,219.917 330,220.5C 330.5,220 331,219.5 331.5,219C 336.606,219.114 341.273,218.28 345.5,216.5C 383.501,216.333 421.501,216.5 459.5,217C 463.678,219.944 468.345,221.11 473.5,220.5C 472.167,221.167 470.833,221.833 469.5,222.5C 396.833,222.5 324.167,222.5 251.5,222.5C 245.469,219.607 238.469,217.607 230.5,216.5C 233.826,216.646 236.993,215.979 240,214.5C 249.384,216.363 258.884,217.029 268.5,216.5 Z"/></g>
<g><path style="opacity:1" fill="#379eb0" d="M 268.5,216.5 C 294.167,216.5 319.833,216.5 345.5,216.5C 341.273,218.28 336.606,219.114 331.5,219C 331,219.5 330.5,220 330,220.5C 319.251,219.917 308.417,219.917 297.5,220.5C 288.207,219.204 278.874,218.371 269.5,218C 268.944,217.617 268.611,217.117 268.5,216.5 Z"/></g>
<g><path style="opacity:1" fill="#f9f9f9" d="M 477.5,223.5 C 481.999,224.558 486.333,226.225 490.5,228.5C 495.108,232.949 498.274,238.282 500,244.5C 500.5,308.499 500.667,372.499 500.5,436.5C 496.804,444.863 490.804,450.863 482.5,454.5C 372.862,455.494 263.195,455.827 153.5,455.5C 147.425,454.794 142.092,452.461 137.5,448.5C 133.675,443.848 131.175,438.514 130,432.5C 129.333,369.833 129.333,307.167 130,244.5C 131.795,237.904 135.295,232.571 140.5,228.5C 143.883,226.278 147.55,224.778 151.5,224C 260.166,223.5 368.833,223.333 477.5,223.5 Z"/></g>
<g><path style="opacity:1" fill="#3aa0b0" d="M 134.5,230.5 C 133.478,234.566 131.478,237.899 128.5,240.5C 128.5,239.167 128.5,237.833 128.5,236.5C 127.167,236.5 125.833,236.5 124.5,236.5C 124.834,239.491 123.834,241.824 121.5,243.5C 121.167,243.5 120.833,243.5 120.5,243.5C 115.211,244.312 110.211,245.979 105.5,248.5C 105.721,247.265 106.388,246.265 107.5,245.5C 110.505,243.463 113.505,241.463 116.5,239.5C 116.291,238.914 115.957,238.414 115.5,238C 117.5,237.667 119.5,237.333 121.5,237C 122.117,233.55 123.783,230.716 126.5,228.5C 127.747,230.006 127.747,231.506 126.5,233C 129.945,236.534 131.779,235.701 132,230.5C 132.977,229.226 133.811,229.226 134.5,230.5 Z"/></g>
<g><path style="opacity:1" fill="#38a0b1" d="M 575.5,209.5 C 577.482,212.113 578.816,215.113 579.5,218.5C 579.291,219.086 578.957,219.586 578.5,220C 579.984,220.662 581.317,221.496 582.5,222.5C 582.26,226.969 582.927,231.302 584.5,235.5C 584.167,236.5 583.833,237.5 583.5,238.5C 581.929,237.691 580.262,237.357 578.5,237.5C 578.649,238.552 578.483,239.552 578,240.5C 577.034,237.105 576.867,233.772 577.5,230.5C 576.453,228.944 575.786,227.277 575.5,225.5C 576.5,225.5 577.5,225.5 578.5,225.5C 578.5,226.5 578.5,227.5 578.5,228.5C 579.5,228.5 580.5,228.5 581.5,228.5C 581.5,227.167 581.5,225.833 581.5,224.5C 580.5,224.5 579.5,224.5 578.5,224.5C 577.224,221.664 576.558,218.664 576.5,215.5C 575.178,215.33 574.011,215.663 573,216.5C 570.246,214.734 569.413,212.401 570.5,209.5C 571.695,211.297 573.362,212.297 575.5,212.5C 575.5,211.5 575.5,210.5 575.5,209.5 Z"/></g>
<g><path style="opacity:1" fill="#f8f9f9" d="M 120.5,243.5 C 120.832,286.003 120.499,328.337 119.5,370.5C 117.859,365.939 116.526,361.273 115.5,356.5C 112.456,342.989 109.122,329.656 105.5,316.5C 102.331,300.819 98.9972,285.152 95.5,269.5C 96.3246,263.356 98.3246,257.69 101.5,252.5C 103.167,251.5 104.5,250.167 105.5,248.5C 110.211,245.979 115.211,244.312 120.5,243.5 Z"/></g>
<g><path style="opacity:1" fill="#61a4af" d="M 585.5,233.5 C 589.64,248.787 592.306,264.454 593.5,280.5C 592.833,279.167 592.167,277.833 591.5,276.5C 589.557,267.193 587.724,257.86 586,248.5C 585.501,243.511 585.334,238.511 585.5,233.5 Z"/></g>
<g><path style="opacity:1" fill="#3b9bb3" d="M 128.5,240.5 C 128.5,252.5 128.5,264.5 128.5,276.5C 127.512,281.64 127.179,286.974 127.5,292.5C 125.833,292.5 124.167,292.5 122.5,292.5C 122.48,280.435 122.98,268.435 124,256.5C 123.667,256.833 123.333,257.167 123,257.5C 122.824,253.312 122.324,249.312 121.5,245.5C 121.5,244.833 121.5,244.167 121.5,243.5C 123.834,241.824 124.834,239.491 124.5,236.5C 125.833,236.5 127.167,236.5 128.5,236.5C 128.5,237.833 128.5,239.167 128.5,240.5 Z"/></g>
<g><path style="opacity:1" fill="#86c0c6" d="M 5.5,252.5 C 5.65757,255.902 5.32423,259.236 4.5,262.5C 4.16667,262.5 3.83333,262.5 3.5,262.5C 3.54877,258.922 4.21543,255.589 5.5,252.5 Z"/></g>
<g><path style="opacity:1" fill="#f8f9f9" d="M 87.5,272.5 C 96.7029,313.846 106.036,355.179 115.5,396.5C 114.833,396.5 114.167,396.5 113.5,396.5C 111.981,393.956 110.648,391.289 109.5,388.5C 101.452,372.404 93.4518,356.404 85.5,340.5C 80.6768,329.52 75.3435,318.854 69.5,308.5C 66.5562,298.553 67.8895,289.22 73.5,280.5C 77.4386,276.562 82.1053,273.895 87.5,272.5 Z"/></g>
<g><path style="opacity:1" fill="#599da3" d="M 490.5,228.5 C 492.554,228.365 494.221,229.032 495.5,230.5C 497.952,235.016 500.118,239.683 502,244.5C 502.5,308.166 502.667,371.832 502.5,435.5C 502.158,436.338 501.492,436.672 500.5,436.5C 500.667,372.499 500.5,308.499 500,244.5C 498.274,238.282 495.108,232.949 490.5,228.5 Z"/></g>
<g><path style="opacity:1" fill="#51a3b2" d="M 3.5,262.5 C 3.83333,262.5 4.16667,262.5 4.5,262.5C 4.65428,267.015 4.65428,271.348 4.5,275.5C 5.83333,276.167 7.16667,276.833 8.5,277.5C 7.63476,277.564 6.63476,277.897 5.5,278.5C 4.35901,280.421 4.19234,282.421 5,284.5C 5.68909,283.643 6.52242,282.977 7.5,282.5C 8.37983,285.111 9.0465,287.778 9.5,290.5C 9.10443,292.628 8.10443,292.628 6.5,290.5C 7.52022,288.568 7.68688,286.568 7,284.5C 6.5313,286.108 5.86463,287.775 5,289.5C 4.4825,299.166 3.9825,308.832 3.5,318.5C 3.35394,323.819 4.02061,328.986 5.5,334C 4.54416,337.394 4.21083,340.894 4.5,344.5C 6.95822,344.227 8.62489,345.227 9.5,347.5C 10.0427,351.919 9.37599,356.252 7.5,360.5C 6.97789,358.781 5.97789,357.448 4.5,356.5C 3.26209,352.381 2.42876,348.047 2,343.5C 1.13709,331.679 0.303761,320.013 -0.5,308.5C -0.5,306.167 -0.5,303.833 -0.5,301.5C 0.22579,288.579 1.55912,275.579 3.5,262.5 Z"/></g>
<g><path style="opacity:1" fill="#76abb1" d="M 120.5,243.5 C 120.833,243.5 121.167,243.5 121.5,243.5C 121.5,244.167 121.5,244.833 121.5,245.5C 121.667,289.168 121.5,332.835 121,376.5C 119.681,374.75 119.181,372.75 119.5,370.5C 120.499,328.337 120.832,286.003 120.5,243.5 Z"/></g>
<g><path style="opacity:1" fill="#4e9ca8" d="M 73.5,280.5 C 67.8895,289.22 66.5562,298.553 69.5,308.5C 68.448,308.649 67.448,308.483 66.5,308C 66.8333,307.667 67.1667,307.333 67.5,307C 66.2565,305.13 65.5899,302.964 65.5,300.5C 66.9546,294.624 67.6213,288.624 67.5,282.5C 69.5,281.833 71.5,281.167 73.5,280.5 Z"/></g>
<g><path style="opacity:1" fill="#4da3ae" d="M 591.5,276.5 C 592.167,277.833 592.833,279.167 593.5,280.5C 593.263,281.791 593.596,282.791 594.5,283.5C 594.5,299.833 594.5,316.167 594.5,332.5C 593.833,332.5 593.5,332.833 593.5,333.5C 592.691,331.708 592.191,329.708 592,327.5C 591.536,328.094 591.369,328.761 591.5,329.5C 590.631,327.016 589.964,324.349 589.5,321.5C 590.1,317.737 590.1,313.903 589.5,310C 591.363,298.784 592.029,287.617 591.5,276.5 Z"/></g>
<g><path style="opacity:1" fill="#3e9bae" d="M 121.5,245.5 C 122.324,249.312 122.824,253.312 123,257.5C 123.333,257.167 123.667,256.833 124,256.5C 122.98,268.435 122.48,280.435 122.5,292.5C 124.167,292.5 125.833,292.5 127.5,292.5C 127.179,286.974 127.512,281.64 128.5,276.5C 128.5,303.167 128.5,329.833 128.5,356.5C 127.167,356.5 125.833,356.5 124.5,356.5C 124.286,358.144 124.62,359.644 125.5,361C 123.478,362.132 123.145,363.799 124.5,366C 122.628,373.034 122.628,380.201 124.5,387.5C 122.757,390.574 120.924,393.574 119,396.5C 118.809,398.708 118.309,400.708 117.5,402.5C 117.029,400.421 116.363,398.421 115.5,396.5C 106.036,355.179 96.7029,313.846 87.5,272.5C 89.3442,271.796 89.8442,270.463 89,268.5C 86.4377,270.967 85.4377,270.3 86,266.5C 86.5556,268.595 87.0556,268.762 87.5,267C 87.0946,266.055 86.428,265.388 85.5,265C 87.6324,264.082 88.299,262.749 87.5,261C 90.6047,257.829 92.6047,253.996 93.5,249.5C 94.5237,250.853 95.857,251.52 97.5,251.5C 97.281,250.325 97.6143,249.325 98.5,248.5C 98.9106,249.262 99.0773,250.262 99,251.5C 99.6708,252.252 100.504,252.586 101.5,252.5C 98.3246,257.69 96.3246,263.356 95.5,269.5C 98.9972,285.152 102.331,300.819 105.5,316.5C 108.26,329.725 110.593,343.059 112.5,356.5C 113.5,356.5 114.5,356.5 115.5,356.5C 116.526,361.273 117.859,365.939 119.5,370.5C 119.181,372.75 119.681,374.75 121,376.5C 121.5,332.835 121.667,289.168 121.5,245.5 Z"/></g>
<g><path style="opacity:1" fill="#3c9cae" d="M 495.5,230.5 C 500.727,231.031 502.727,233.697 501.5,238.5C 502.81,241.206 503.81,244.039 504.5,247C 503.835,309.931 503.168,372.764 502.5,435.5C 502.667,371.832 502.5,308.166 502,244.5C 500.118,239.683 497.952,235.016 495.5,230.5 Z"/></g>
<g><path style="opacity:1" fill="#5397a3" d="M 105.5,316.5 C 109.122,329.656 112.456,342.989 115.5,356.5C 114.5,356.5 113.5,356.5 112.5,356.5C 110.593,343.059 108.26,329.725 105.5,316.5 Z"/></g>
<g><path style="opacity:1" fill="#5aa5b1" d="M 593.5,333.5 C 592.421,351.316 589.421,368.649 584.5,385.5C 586.62,366.786 588.953,348.119 591.5,329.5C 591.369,328.761 591.536,328.094 592,327.5C 592.191,329.708 592.691,331.708 593.5,333.5 Z"/></g>
<g><path style="opacity:1" fill="#5199a8" d="M 85.5,340.5 C 93.4518,356.404 101.452,372.404 109.5,388.5C 108.5,388.5 107.5,388.5 106.5,388.5C 106.798,384.399 105.132,381.733 101.5,380.5C 101.067,377.834 100.567,375.168 100,372.5C 93.984,363.945 89.1506,355.112 85.5,346C 85.8541,344.374 85.8541,342.541 85.5,340.5 Z"/></g>
<g><path style="opacity:1" fill="#559ca7" d="M 137.5,228.5 C 138.5,228.5 139.5,228.5 140.5,228.5C 135.295,232.571 131.795,237.904 130,244.5C 129.333,307.167 129.333,369.833 130,432.5C 131.175,438.514 133.675,443.848 137.5,448.5C 136.761,448.369 136.094,448.536 135.5,449C 136.696,449.654 136.696,450.154 135.5,450.5C 134.201,449.91 133.368,448.91 133,447.5C 132.667,447.833 132.333,448.167 132,448.5C 132.305,446.557 132.305,444.557 132,442.5C 131.29,441.027 130.124,440.36 128.5,440.5C 128.5,434.5 128.5,428.5 128.5,422.5C 128.5,411.167 128.5,399.833 128.5,388.5C 128.5,377.833 128.5,367.167 128.5,356.5C 128.5,329.833 128.5,303.167 128.5,276.5C 128.5,264.5 128.5,252.5 128.5,240.5C 131.478,237.899 133.478,234.566 134.5,230.5C 135.778,230.218 136.778,229.551 137.5,228.5 Z"/></g>
<g><path style="opacity:1" fill="#54a4af" d="M 4.5,356.5 C 5.97789,357.448 6.97789,358.781 7.5,360.5C 8.82406,366.375 9.99073,372.375 11,378.5C 11.6259,380.991 12.4593,380.991 13.5,378.5C 13.9848,381.074 14.9848,382.574 16.5,383C 16.0496,384.285 15.3829,385.452 14.5,386.5C 15.2132,388.776 15.7132,391.109 16,393.5C 17.3333,394.833 18.6667,394.833 20,393.5C 20.1667,394 20.3333,394.5 20.5,395C 19.3568,397.342 18.6901,399.842 18.5,402.5C 20.1037,407.712 21.1037,413.046 21.5,418.5C 13.02,398.71 7.35333,378.043 4.5,356.5 Z"/></g>
<g><path style="opacity:1" fill="#9fe6ef" d="M 113.5,396.5 C 114.167,396.5 114.833,396.5 115.5,396.5C 116.363,398.421 117.029,400.421 117.5,402.5C 117.19,403.738 116.69,403.738 116,402.5C 115.427,400.359 114.594,398.359 113.5,396.5 Z"/></g>
<g><path style="opacity:1" fill="#63a9b2" d="M 583.5,388.5 C 583.322,391.216 582.822,393.883 582,396.5C 579.971,402.34 577.804,408.006 575.5,413.5C 576.529,411.136 576.529,408.803 575.5,406.5C 577.217,403.122 578.55,399.622 579.5,396C 579.167,395.667 578.833,395.333 578.5,395C 579.24,393.215 579.907,391.382 580.5,389.5C 581.325,388.614 582.325,388.281 583.5,388.5 Z"/></g>
<g><path style="opacity:1" fill="#36a0ad" d="M 128.5,388.5 C 128.5,399.833 128.5,411.167 128.5,422.5C 127.778,422.918 127.278,423.584 127,424.5C 126.182,421.893 125.682,419.226 125.5,416.5C 126.592,412.13 126.592,407.796 125.5,403.5C 126.908,399.617 127.242,395.784 126.5,392C 126.608,390.319 127.275,389.152 128.5,388.5 Z"/></g>
<g><path style="opacity:1" fill="#73afb9" d="M 575.5,413.5 C 574.918,417.532 573.584,421.199 571.5,424.5C 571.336,421.813 571.503,419.146 572,416.5C 572.333,417.167 572.667,417.833 573,418.5C 573.05,416.256 573.883,414.589 575.5,413.5 Z"/></g>
<g><path style="opacity:1" fill="#74afba" d="M 24.5,426.5 C 22.7329,424.208 21.7329,421.542 21.5,418.5C 22.1174,418.389 22.6174,418.056 23,417.5C 24.1488,420.393 24.6488,423.393 24.5,426.5 Z"/></g>
<g><path style="opacity:1" fill="#34a1b2" d="M 33.5,440.5 C 31.6214,440.607 31.2881,440.107 32.5,439C 30.4873,437.209 30.4873,435.875 32.5,435C 30.8934,433.951 30.2267,432.451 30.5,430.5C 31.2216,430.918 31.7216,431.584 32,432.5C 34.6017,429.313 35.7684,425.646 35.5,421.5C 36.8333,421.5 38.1667,421.5 39.5,421.5C 39.6659,426.511 39.4993,431.511 39,436.5C 38.313,439.426 36.4797,440.759 33.5,440.5 Z"/></g>
<g><path style="opacity:1" fill="#7bb4bd" d="M 569.5,429.5 C 567.736,434.022 565.736,438.355 563.5,442.5C 563.588,438.736 564.588,435.236 566.5,432C 566.167,431.667 565.833,431.333 565.5,431C 566.901,430.59 568.234,430.09 569.5,429.5 Z"/></g>
<g><path style="opacity:1" fill="#5fa3ad" d="M 24.5,426.5 C 26.7151,427.532 28.7151,428.866 30.5,430.5C 30.2267,432.451 30.8934,433.951 32.5,435C 30.4873,435.875 30.4873,437.209 32.5,439C 31.2881,440.107 31.6214,440.607 33.5,440.5C 35.476,446.074 37.976,451.408 41,456.5C 41.49,457.793 41.6567,459.127 41.5,460.5C 34.7983,449.763 29.1316,438.43 24.5,426.5 Z"/></g>
<g><path style="opacity:1" fill="#72b1b8" d="M 563.5,442.5 C 562.325,446.183 560.659,449.516 558.5,452.5C 558.757,449.068 559.424,445.734 560.5,442.5C 561.5,442.5 562.5,442.5 563.5,442.5 Z"/></g>
<g><path style="opacity:1" fill="#7ea9ad" d="M 482.5,454.5 C 482.672,455.492 482.338,456.158 481.5,456.5C 401.5,456.5 321.5,456.5 241.5,456.5C 212.167,456.5 182.833,456.5 153.5,456.5C 153.5,456.167 153.5,455.833 153.5,455.5C 263.195,455.827 372.862,455.494 482.5,454.5 Z"/></g>
<g><path style="opacity:1" fill="#389dad" d="M 241.5,456.5 C 321.5,456.5 401.5,456.5 481.5,456.5C 480.398,458.092 481.065,458.925 483.5,459C 480.776,459.27 478.109,459.77 475.5,460.5C 445.521,459.893 415.521,458.893 385.5,457.5C 377.471,457.835 369.471,458.502 361.5,459.5C 318.834,459.5 276.167,459.167 233.5,458.5C 236.167,457.833 238.833,457.167 241.5,456.5 Z"/></g>
<g><path style="opacity:1" fill="#409cad" d="M 153.5,456.5 C 182.833,456.5 212.167,456.5 241.5,456.5C 238.833,457.167 236.167,457.833 233.5,458.5C 228.053,458.455 227.553,459.455 232,461.5C 233.009,463.025 233.509,464.692 233.5,466.5C 232.325,466.281 231.325,466.614 230.5,467.5C 232.506,469.252 234.839,470.252 237.5,470.5C 239.105,469.376 241.438,468.71 244.5,468.5C 246.369,468.507 248.036,468.84 249.5,469.5C 246.933,469.721 244.599,470.388 242.5,471.5C 234.506,473.164 226.506,474.831 218.5,476.5C 218.461,475.417 218.127,474.417 217.5,473.5C 212.208,472.505 206.875,472.172 201.5,472.5C 207.98,470.209 214.647,468.209 221.5,466.5C 230.714,465.213 230.714,464.546 221.5,464.5C 197.498,464.667 173.498,464.5 149.5,464C 148.584,463.722 147.918,463.222 147.5,462.5C 160.184,462.832 172.851,462.499 185.5,461.5C 188.167,460.833 190.833,460.167 193.5,459.5C 180.846,458.667 168.18,458.167 155.5,458C 154.584,457.722 153.918,457.222 153.5,456.5 Z"/></g>
<g><path style="opacity:1" fill="#5ea5b0" d="M 558.5,452.5 C 555.404,458.367 552.071,464.033 548.5,469.5C 548.301,466.059 548.801,462.726 550,459.5C 551.205,458.929 552.372,458.262 553.5,457.5C 554.087,454.594 555.754,452.928 558.5,452.5 Z"/></g>
<g><path style="opacity:1" fill="#f7f8f9" d="M 147.5,462.5 C 147.918,463.222 148.584,463.722 149.5,464C 173.498,464.5 197.498,464.667 221.5,464.5C 221.5,465.167 221.5,465.833 221.5,466.5C 214.647,468.209 207.98,470.209 201.5,472.5C 201.167,472.5 200.833,472.5 200.5,472.5C 190.019,473.869 179.686,476.036 169.5,479C 155.291,480.893 145.291,475.393 139.5,462.5C 141.952,462.014 144.618,462.014 147.5,462.5 Z"/></g>
<g><path style="opacity:1" fill="#b4eff5" d="M 221.5,464.5 C 230.714,464.546 230.714,465.213 221.5,466.5C 221.5,465.833 221.5,465.167 221.5,464.5 Z"/></g>
<g><path style="opacity:1" fill="#66a8b1" d="M 41.5,460.5 C 42.552,460.351 43.552,460.517 44.5,461C 46.5057,465.525 48.839,470.358 51.5,475.5C 52.7287,476.281 54.062,476.781 55.5,477C 54.6634,478.011 54.33,479.178 54.5,480.5C 55.5,480.5 56.5,480.5 57.5,480.5C 57.238,481.978 57.5713,483.311 58.5,484.5C 61.4964,488.675 64.3297,493.009 67,497.5C 69.0344,498.862 71.2011,499.862 73.5,500.5C 73.5172,502.565 73.8505,504.565 74.5,506.5C 74.8333,507.167 75.1667,507.833 75.5,508.5C 73.2496,506.756 71.0829,504.756 69,502.5C 58.5858,489.344 49.4191,475.344 41.5,460.5 Z"/></g>
<g><path style="opacity:1" fill="#f7f8f9" d="M 242.5,471.5 C 243.167,471.5 243.5,471.833 243.5,472.5C 236.167,476.5 228.833,480.5 221.5,484.5C 209.867,489.318 198.534,494.651 187.5,500.5C 178.226,501.927 169.892,499.927 162.5,494.5C 160.615,492.947 159.615,490.947 159.5,488.5C 163.042,488.813 166.375,488.479 169.5,487.5C 171.216,487.371 172.883,487.038 174.5,486.5C 188.758,483.768 202.758,480.434 216.5,476.5C 217.167,476.5 217.833,476.5 218.5,476.5C 226.506,474.831 234.506,473.164 242.5,471.5 Z"/></g>
<g><path style="opacity:1" fill="#a1e8f0" d="M 249.5,469.5 C 247.819,471.008 245.819,472.008 243.5,472.5C 243.5,471.833 243.167,471.5 242.5,471.5C 244.599,470.388 246.933,469.721 249.5,469.5 Z"/></g>
<g><path style="opacity:1" fill="#64a7af" d="M 548.5,469.5 C 546.327,473.852 543.66,477.852 540.5,481.5C 541.653,476.856 543.653,472.523 546.5,468.5C 547.183,468.863 547.85,469.196 548.5,469.5 Z"/></g>
<g><path style="opacity:1" fill="#379bb5" d="M 200.5,472.5 C 200.833,472.5 201.167,472.5 201.5,472.5C 206.875,472.172 212.208,472.505 217.5,473.5C 218.127,474.417 218.461,475.417 218.5,476.5C 217.833,476.5 217.167,476.5 216.5,476.5C 213.903,476.279 213.903,475.779 216.5,475C 214.236,474.764 212.069,474.264 210,473.5C 209.692,474.308 209.192,474.975 208.5,475.5C 206.012,476.025 203.679,476.858 201.5,478C 196.315,478.328 191.481,478.828 187,479.5C 186.25,478.874 185.416,478.374 184.5,478C 184.833,477.667 185.167,477.333 185.5,477C 190.957,476.23 195.957,474.73 200.5,472.5 Z"/></g>
<g><path style="opacity:1" fill="#479dad" d="M 139.5,462.5 C 145.291,475.393 155.291,480.893 169.5,479C 179.686,476.036 190.019,473.869 200.5,472.5C 195.957,474.73 190.957,476.23 185.5,477C 185.167,477.333 184.833,477.667 184.5,478C 185.416,478.374 186.25,478.874 187,479.5C 191.481,478.828 196.315,478.328 201.5,478C 203.679,476.858 206.012,476.025 208.5,475.5C 209.192,474.975 209.692,474.308 210,473.5C 212.069,474.264 214.236,474.764 216.5,475C 213.903,475.779 213.903,476.279 216.5,476.5C 202.758,480.434 188.758,483.768 174.5,486.5C 174.389,485.883 174.056,485.383 173.5,485C 174.672,484.581 175.672,483.915 176.5,483C 167.827,481.5 159.161,480 150.5,478.5C 148.116,480.953 146.116,480.786 144.5,478C 144.759,476.739 145.426,475.739 146.5,475C 144.178,473.076 141.511,471.743 138.5,471C 138.957,470.586 139.291,470.086 139.5,469.5C 137.571,466.775 137.071,463.775 138,460.5C 138.278,461.416 138.778,462.082 139.5,462.5 Z"/></g>
<g><path style="opacity:1" fill="#469caa" d="M 221.5,484.5 C 222.931,485.446 224.264,486.612 225.5,488C 224.5,488.333 223.5,488.667 222.5,489C 222.833,489.333 223.167,489.667 223.5,490C 220.571,490.777 217.737,490.61 215,489.5C 214.517,490.448 214.351,491.448 214.5,492.5C 211.482,492.335 208.482,492.502 205.5,493C 203.845,494.444 203.178,496.278 203.5,498.5C 198.123,498.881 192.79,499.547 187.5,500.5C 198.534,494.651 209.867,489.318 221.5,484.5 Z"/></g>
<g><path style="opacity:1" fill="#4fa3ad" d="M 169.5,487.5 C 166.375,488.479 163.042,488.813 159.5,488.5C 159.615,490.947 160.615,492.947 162.5,494.5C 157.044,495.411 155.711,493.745 158.5,489.5C 158.291,488.914 157.957,488.414 157.5,488C 161.486,487.501 165.486,487.334 169.5,487.5 Z"/></g>
<g><path style="opacity:1" fill="#65a4b1" d="M 538.5,484.5 C 534.984,490.2 530.984,495.533 526.5,500.5C 526.917,497.657 527.917,494.99 529.5,492.5C 531.684,490.484 533.684,488.317 535.5,486C 535.167,485.667 534.833,485.333 534.5,485C 535.793,484.51 537.127,484.343 538.5,484.5 Z"/></g>
<g><path style="opacity:1" fill="#57a4ae" d="M 526.5,500.5 C 522.894,506.438 518.561,511.771 513.5,516.5C 513.586,515.504 513.252,514.671 512.5,514C 519.611,508.141 518.944,504.474 510.5,503C 512.13,501.787 513.964,500.954 516,500.5C 517.331,501.996 518.831,503.329 520.5,504.5C 521.187,502.726 522.02,501.059 523,499.5C 524.011,500.337 525.178,500.67 526.5,500.5 Z"/></g>
<g><path style="opacity:1" fill="#419fae" d="M 74.5,506.5 C 75.9778,506.238 77.3112,506.571 78.5,507.5C 80.4279,509.05 82.2613,510.717 84,512.5C 84.3333,511.833 84.6667,511.167 85,510.5C 87.9566,512.694 88.79,515.36 87.5,518.5C 88.8333,518.5 90.1667,518.5 91.5,518.5C 91.5,519.5 91.5,520.5 91.5,521.5C 93.1238,521.36 94.2904,522.027 95,523.5C 95.3333,523.167 95.6667,522.833 96,522.5C 97.3204,524.583 98.6538,524.249 100,521.5C 100.658,523.108 100.158,524.275 98.5,525C 99.8333,525.667 99.8333,526.333 98.5,527C 100.807,527.354 101.141,528.354 99.5,530C 100.137,531.713 101.137,531.879 102.5,530.5C 105.034,533.825 107.867,536.825 111,539.5C 112.395,538.57 113.895,538.57 115.5,539.5C 116.647,539.182 117.481,538.516 118,537.5C 118.409,539.991 119.576,541.991 121.5,543.5C 120.5,544.833 119.5,546.167 118.5,547.5C 119.325,548.386 120.325,548.719 121.5,548.5C 121.5,549.833 121.5,551.167 121.5,552.5C 115.874,549.199 110.874,545.199 106.5,540.5C 105.425,536.091 102.758,533.425 98.5,532.5C 98.6495,531.448 98.4828,530.448 98,529.5C 95.3069,528.27 93.1402,526.437 91.5,524C 91.8333,523.667 92.1667,523.333 92.5,523C 90.1316,522.144 87.7983,521.31 85.5,520.5C 81.2454,517.359 77.9121,513.359 75.5,508.5C 75.1667,507.833 74.8333,507.167 74.5,506.5 Z"/></g>
<g><path style="opacity:1" fill="#66a4b0" d="M 85.5,520.5 C 87.7983,521.31 90.1316,522.144 92.5,523C 92.1667,523.333 91.8333,523.667 91.5,524C 93.1402,526.437 95.3069,528.27 98,529.5C 98.4828,530.448 98.6495,531.448 98.5,532.5C 102.758,533.425 105.425,536.091 106.5,540.5C 98.8681,534.536 91.8681,527.869 85.5,520.5 Z"/></g>
<g><path style="opacity:1" fill="#6ea7b4" d="M 505.5,524.5 C 499.017,532.17 491.683,538.836 483.5,544.5C 483.343,543.127 483.51,541.793 484,540.5C 484.333,540.833 484.667,541.167 485,541.5C 486.907,538.896 489.407,537.229 492.5,536.5C 492.5,535.167 492.5,533.833 492.5,532.5C 493.978,532.762 495.311,532.429 496.5,531.5C 498.98,528.336 501.98,526.002 505.5,524.5 Z"/></g>
<g><path style="opacity:1" fill="#62a5b2" d="M 478.5,548.5 C 472.074,554.594 465.074,559.927 457.5,564.5C 457.5,563.167 457.5,561.833 457.5,560.5C 458.873,560.657 460.207,560.49 461.5,560C 461.167,559.667 460.833,559.333 460.5,559C 463.463,557.35 466.463,555.85 469.5,554.5C 469.5,553.167 469.5,551.833 469.5,550.5C 470.822,550.33 471.989,550.663 473,551.5C 473.483,550.552 473.649,549.552 473.5,548.5C 475.167,548.5 476.833,548.5 478.5,548.5 Z"/></g>
<g><path style="opacity:1" fill="#50a0ae" d="M 177.5,586.5 C 159.077,578.793 142.077,568.793 126.5,556.5C 125.2,555.399 124.7,554.066 125,552.5C 127.869,555.024 131.036,557.191 134.5,559C 134.167,559.333 133.833,559.667 133.5,560C 134.793,560.49 136.127,560.657 137.5,560.5C 137.5,561.5 137.5,562.5 137.5,563.5C 140.695,562.961 143.195,563.961 145,566.5C 147.763,564.242 150.263,564.742 152.5,568C 152.043,568.414 151.709,568.914 151.5,569.5C 153.343,571.605 155.676,572.772 158.5,573C 160.577,576.621 163.077,577.121 166,574.5C 166.49,575.793 166.657,577.127 166.5,578.5C 170.758,580.721 175.091,582.887 179.5,585C 178.584,585.278 177.918,585.778 177.5,586.5 Z"/></g>
<g><path style="opacity:1" fill="#57a1ae" d="M 447.5,570.5 C 439.429,576.203 430.762,580.87 421.5,584.5C 428.006,576.24 436.673,571.574 447.5,570.5 Z"/></g>
<g><path style="opacity:1" fill="#48a1af" d="M 201.5,596.5 C 196.121,595.267 191.121,593.267 186.5,590.5C 187.5,590.5 188.5,590.5 189.5,590.5C 189.5,589.167 189.5,587.833 189.5,586.5C 188.167,586.5 186.833,586.5 185.5,586.5C 185.672,584.508 185.005,582.842 183.5,581.5C 188.015,580.69 192.015,582.023 195.5,585.5C 193.994,586.747 192.494,586.747 191,585.5C 190.405,586.899 190.572,588.232 191.5,589.5C 194.934,591.975 198.268,594.308 201.5,596.5 Z"/></g>
<g><path style="opacity:1" fill="#54a1ae" d="M 421.5,584.5 C 412.642,589.458 403.308,593.458 393.5,596.5C 394.99,593.108 397.657,591.774 401.5,592.5C 401.328,590.508 401.995,588.842 403.5,587.5C 409.494,586.319 415.494,585.319 421.5,584.5 Z"/></g>
<g><path style="opacity:1" fill="#5ea1aa" d="M 201.5,596.5 C 204.85,596.335 208.183,596.502 211.5,597C 218.868,599.581 226.201,602.248 233.5,605C 234.056,605.383 234.389,605.883 234.5,606.5C 223.071,604.231 212.071,600.898 201.5,596.5 Z"/></g>
<g><path style="opacity:1" fill="#3ba1b1" d="M 370.5,600.5 C 369.77,602.045 368.437,602.878 366.5,603C 367.056,603.383 367.389,603.883 367.5,604.5C 364.727,605.657 361.727,606.324 358.5,606.5C 358.082,605.778 357.416,605.278 356.5,605C 350.509,604.501 344.509,604.334 338.5,604.5C 335.223,604.216 332.057,604.549 329,605.5C 328.801,603.598 327.967,602.098 326.5,601C 332.5,600.333 338.5,600.333 344.5,601C 347.331,603.863 350.165,604.03 353,601.5C 354.016,602.634 354.683,602.301 355,600.5C 356.754,602.25 358.921,602.917 361.5,602.5C 361.5,601.167 361.5,599.833 361.5,598.5C 359.801,598.66 358.134,598.494 356.5,598C 359.146,597.503 361.813,597.336 364.5,597.5C 364.238,598.978 364.571,600.311 365.5,601.5C 367.071,600.691 368.738,600.357 370.5,600.5 Z"/></g>
<g><path style="opacity:1" fill="#62a3ae" d="M 393.5,596.5 C 385.242,600.139 376.575,602.806 367.5,604.5C 367.389,603.883 367.056,603.383 366.5,603C 368.437,602.878 369.77,602.045 370.5,600.5C 378.048,598.541 385.714,597.208 393.5,596.5 Z"/></g>
<g><path style="opacity:1" fill="#6ea7b2" d="M 236.5,606.5 C 239.833,606.5 243.167,606.5 246.5,606.5C 254.369,608.489 262.369,610.489 270.5,612.5C 258.845,611.559 247.511,609.559 236.5,606.5 Z"/></g>
<g><path style="opacity:1" fill="#4b9eae" d="M 338.5,604.5 C 344.509,604.334 350.509,604.501 356.5,605C 357.416,605.278 358.082,605.778 358.5,606.5C 345.652,609.737 332.652,612.07 319.5,613.5C 304.833,613.5 290.167,613.5 275.5,613.5C 274.081,612.549 272.415,612.216 270.5,612.5C 262.369,610.489 254.369,608.489 246.5,606.5C 248.342,606.277 250.175,605.943 252,605.5C 257.406,607.568 263.072,608.568 269,608.5C 288.417,608.564 307.584,608.564 326.5,608.5C 328.5,609.167 330.5,609.833 332.5,610.5C 336.247,609.36 339.914,608.193 343.5,607C 341.256,606.95 339.589,606.117 338.5,604.5 Z"/></g>
</svg>
